<svg width="244" height="48" viewBox="0 0 244 48" fill="none" xmlns="http://www.w3.org/2000/svg">
<rect x="0.5" y="0.5" width="243" height="47" rx="23.5" fill="#31BCB4" stroke="#31BCB4"/>
<path d="M59.7297 24.2547V22.4876H57.9362C57.5933 22.4876 57.4087 22.1711 57.4087 21.8678C57.4087 21.5513 57.5933 21.248 57.9362 21.248H59.7297V20.2457C59.611 20.3644 59.5055 20.4699 59.3868 20.5754C59.2022 20.7337 59.0176 20.7996 58.8329 20.7996C58.4505 20.7996 58.1208 20.4963 58.1208 20.1534C58.1208 19.9952 58.1868 19.8237 58.345 19.6787C59.0571 19.0325 59.7824 18.083 60.244 17.1994C60.3627 16.962 60.6001 16.8697 60.8243 16.8697C61.2067 16.8697 61.5759 17.1203 61.5759 17.4895C61.5759 17.5819 61.5628 17.6742 61.51 17.7797C61.4177 17.9643 61.299 18.1489 61.1803 18.3467H68.473C68.8291 18.3467 69.0005 18.65 69.0005 18.9534C69.0005 19.2567 68.8291 19.56 68.473 19.56H67.7477V21.248H69.2115C69.5676 21.248 69.739 21.5513 69.739 21.8678C69.739 22.1711 69.5676 22.4876 69.2115 22.4876H67.7477V24.2547H68.6972C69.0533 24.2547 69.2247 24.558 69.2247 24.8614C69.2247 25.1647 69.0533 25.468 68.6972 25.468H58.4637C58.1208 25.468 57.9362 25.1647 57.9362 24.8614C57.9362 24.558 58.1208 24.2547 58.4637 24.2547H59.7297ZM61.0484 24.2547H61.9452V22.4876H61.0484V24.2547ZM61.0484 21.248H61.9452V19.56H61.0484V21.248ZM63.2376 19.56V21.248H64.1739V19.56H63.2376ZM63.2376 22.4876V24.2547H64.1739V22.4876H63.2376ZM65.4663 19.56V21.248H66.4289V19.56H65.4663ZM65.4663 22.4876V24.2547H66.4289V22.4876H65.4663ZM58.9912 26.3384C59.1231 26.0482 59.3736 25.9295 59.6242 25.9295C60.0066 25.9295 60.3759 26.2065 60.3759 26.6021C60.3759 26.6944 60.3627 26.7999 60.3099 26.9054C60.033 27.512 59.6901 28.1319 59.3077 28.6462C59.1099 28.9099 58.8725 29.0154 58.6351 29.0154C58.2395 29.0154 57.8834 28.6989 57.8834 28.3297C57.8834 28.1978 57.923 28.0527 58.0285 27.9209C58.3978 27.4329 58.7538 26.8395 58.9912 26.3384ZM62.7496 26.523C62.8947 26.9186 63.0661 27.512 63.1584 28C63.1716 28.0527 63.1716 28.0923 63.1716 28.145C63.1716 28.5539 62.8156 28.7912 62.4463 28.7912C62.143 28.7912 61.8265 28.6066 61.7474 28.2242C61.6551 27.8022 61.5232 27.2483 61.3913 26.8395C61.3649 26.7604 61.3518 26.6944 61.3518 26.6285C61.3518 26.246 61.6946 26.0087 62.0507 26.0087C62.3276 26.0087 62.6309 26.1669 62.7496 26.523ZM68.1433 26.0878C68.5389 26.5625 68.9741 27.1692 69.2379 27.6175C69.317 27.7626 69.3566 27.8945 69.3566 28.0264C69.3566 28.422 69.0005 28.6857 68.6181 28.6857C68.3675 28.6857 68.0906 28.567 67.9191 28.2769C67.6422 27.8154 67.2861 27.2747 66.9433 26.8263C66.8378 26.6812 66.785 26.5494 66.785 26.4175C66.785 26.0614 67.1411 25.7977 67.5235 25.7977C67.7477 25.7977 67.9719 25.8768 68.1433 26.0878ZM65.3739 26.3384C65.5981 26.7472 65.8619 27.3142 66.0201 27.7758C66.0465 27.8681 66.0597 27.9604 66.0597 28.0395C66.0597 28.4484 65.7168 28.6857 65.3476 28.6857C65.0706 28.6857 64.7805 28.5275 64.6618 28.1978C64.5036 27.7494 64.2794 27.2087 64.0816 26.7867C64.0288 26.6812 64.0156 26.5889 64.0156 26.4966C64.0156 26.1537 64.3321 25.9295 64.6882 25.9295C64.9388 25.9295 65.2157 26.0614 65.3739 26.3384Z" fill="white"/>
<path d="M72.7985 27.2747L72.8513 24.7163C72.5216 25.4548 72.1128 26.1537 71.7171 26.6285C71.5325 26.8527 71.3215 26.945 71.1237 26.945C70.794 26.945 70.5171 26.6944 70.5171 26.3647C70.5171 26.2329 70.5698 26.0746 70.6885 25.9295C71.427 25.0196 72.0468 23.8195 72.5216 22.5272H71.1633C70.8336 22.5272 70.6621 22.2107 70.6621 21.9074C70.6621 21.5909 70.8336 21.2875 71.1501 21.2875H72.7985V17.3445C72.7985 16.9884 73.1414 16.817 73.4843 16.817C73.8271 16.817 74.17 16.9884 74.17 17.3445V21.2875H75.436C75.7657 21.2875 75.9371 21.5909 75.9371 21.9074C75.9371 22.2107 75.7657 22.5272 75.436 22.5272H74.17V23.081C74.8558 23.503 75.5151 24.0437 75.7789 24.347C75.9371 24.5317 76.0031 24.7031 76.0031 24.8745C76.0031 25.2042 75.7261 25.468 75.4096 25.468C75.2382 25.468 75.0536 25.3889 74.8953 25.2174C74.6843 24.98 74.4338 24.7427 74.17 24.5185V28.6198C74.17 29.0154 73.8271 29.2132 73.4843 29.2132C73.1414 29.2132 72.7985 29.0154 72.7985 28.6198V27.2747ZM81.3176 23.8987L82.2408 23.6877C82.2935 23.6745 82.3331 23.6745 82.3858 23.6745C82.7551 23.6745 82.9793 24.0305 82.9793 24.3734C82.9793 24.6372 82.8342 24.8877 82.5177 24.9669L81.3176 25.2438V28.5275C81.3176 28.9363 80.9616 29.1341 80.6055 29.1341C80.2363 29.1341 79.8802 28.9363 79.8802 28.5275V25.5603L76.8207 26.2592C76.7679 26.2724 76.7284 26.2724 76.6888 26.2724C76.3196 26.2724 76.0822 25.9032 76.0822 25.5603C76.0822 25.2965 76.2141 25.0328 76.5306 24.9669L79.8802 24.2152V17.4895C79.8802 17.0807 80.2363 16.8829 80.6055 16.8829C80.9616 16.8829 81.3176 17.0807 81.3176 17.4895V23.8987ZM74.8294 18.7951C74.8953 18.5445 75.1063 18.4259 75.3305 18.4259C75.6206 18.4259 75.9108 18.6237 75.9108 18.9402C75.9108 18.9797 75.9108 19.0325 75.8976 19.0852C75.7921 19.5204 75.5943 20.0743 75.3964 20.4699C75.2909 20.6677 75.0931 20.76 74.9085 20.76C74.6184 20.76 74.3414 20.5754 74.3414 20.2985C74.3414 20.2325 74.3546 20.1666 74.3942 20.0875C74.5524 19.7314 74.7107 19.2699 74.8294 18.7951ZM72.1523 18.8347C72.3633 19.2962 72.5611 19.771 72.5875 20.0611C72.6007 20.1007 72.6007 20.1402 72.6007 20.1798C72.6007 20.5359 72.2974 20.76 71.9941 20.76C71.7567 20.76 71.5193 20.6282 71.4534 20.3249C71.3743 19.9952 71.2292 19.494 71.0973 19.1907C71.0709 19.1116 71.0578 19.0457 71.0578 18.9797C71.0578 18.6896 71.3347 18.5182 71.6248 18.5182C71.8358 18.5182 72.0468 18.6105 72.1523 18.8347ZM78.1263 18.6632C78.4955 18.927 78.9043 19.2567 79.2076 19.5995C79.3527 19.7578 79.4186 19.9292 79.4186 20.0875C79.4186 20.4567 79.0889 20.76 78.7329 20.76C78.5614 20.76 78.3768 20.6941 78.2186 20.5359C77.9021 20.2325 77.546 19.916 77.2559 19.6655C77.0844 19.5204 77.0053 19.3358 77.0053 19.1775C77.0053 18.8347 77.3218 18.5182 77.7043 18.5182C77.8361 18.5182 77.9812 18.5577 78.1263 18.6632ZM77.6251 21.4194C78.0208 21.6964 78.4032 21.9997 78.7593 22.3689C78.9043 22.5272 78.9703 22.6986 78.9703 22.8569C78.9703 23.2261 78.6406 23.5426 78.2845 23.5426C78.1131 23.5426 77.9416 23.4767 77.7834 23.3184C77.4801 23.0283 77.0713 22.659 76.7548 22.4217C76.5701 22.2766 76.491 22.1052 76.491 21.9337C76.491 21.5909 76.8207 21.2744 77.2031 21.2744C77.335 21.2744 77.4801 21.3139 77.6251 21.4194Z" fill="white"/>
<path d="M90.2851 19.9292L92.7908 19.916C93.9908 19.916 94.5447 20.3908 94.5447 21.5381C94.5447 23.2129 94.4128 24.9273 94.1623 26.2592C93.8853 27.7626 93.1468 28.3033 91.7621 28.3033C91.6171 28.3033 91.2214 28.2769 90.9841 28.2505C90.4829 28.1846 90.2588 27.8285 90.2588 27.4725C90.2588 27.09 90.5225 26.7208 90.9841 26.7208C91.0236 26.7208 91.0632 26.734 91.1028 26.734C91.2874 26.7472 91.5248 26.7867 91.8017 26.7867C92.2633 26.7867 92.527 26.6153 92.6589 25.9823C92.9094 24.769 93.0149 23.1206 93.0149 21.7359C93.0149 21.393 92.9094 21.2875 92.4874 21.2875L90.1664 21.3007C89.995 22.7777 89.6521 23.991 89.0983 25.0196C88.3729 26.3515 87.3575 27.4857 86.1443 28.2505C85.9596 28.3692 85.775 28.4088 85.6036 28.4088C85.1816 28.4088 84.8519 28.0791 84.8519 27.6967C84.8519 27.4461 84.9838 27.1824 85.3266 26.9582C86.2893 26.3252 87.1597 25.4284 87.7268 24.347C88.1619 23.5162 88.4521 22.5272 88.6103 21.3139L85.6299 21.3403C85.1816 21.3403 84.9442 20.9974 84.9442 20.6545C84.9442 20.3117 85.1684 19.9688 85.6168 19.9688L88.729 19.9424C88.7422 19.5336 88.7554 19.0984 88.7554 18.65V17.7533C88.7554 17.3313 89.151 17.1203 89.5334 17.1203C89.9291 17.1203 90.3115 17.3313 90.3115 17.7665V18.65C90.3115 19.0984 90.2983 19.5204 90.2851 19.9292Z" fill="white"/>
<path d="M103.921 19.4149H105.978C107.429 19.4149 107.97 20.0347 107.97 20.9183C107.97 21.0238 107.956 21.1293 107.943 21.2348C107.495 24.6635 105.424 27.1824 102.391 28.4088C102.246 28.4615 102.114 28.4879 101.996 28.4879C101.521 28.4879 101.218 28.1319 101.218 27.7362C101.218 27.4593 101.389 27.156 101.785 26.9845C104.396 25.8768 105.926 23.9778 106.308 21.3667C106.321 21.2875 106.321 21.2216 106.321 21.1689C106.321 20.8655 106.163 20.7864 105.715 20.7864H100.809C100.308 20.7864 100.176 20.9315 100.176 21.3403V23.0415C100.176 23.4635 99.7933 23.6877 99.3977 23.6877C99.0153 23.6877 98.6196 23.4635 98.6196 23.0415V20.9842C98.6196 19.9292 99.1867 19.4149 100.413 19.4149H102.391V17.9643C102.391 17.5159 102.774 17.2917 103.156 17.2917C103.539 17.2917 103.921 17.5159 103.921 17.9643V19.4149Z" fill="white"/>
<path d="M113.152 18.7292C113.759 19.138 114.471 19.7182 115.091 20.3776C115.262 20.549 115.328 20.7469 115.328 20.9447C115.328 21.393 114.933 21.815 114.484 21.815C114.286 21.815 114.075 21.7359 113.891 21.5513C113.297 20.9579 112.678 20.404 112.097 19.9556C111.873 19.7842 111.781 19.5732 111.781 19.3622C111.781 18.9534 112.163 18.5577 112.625 18.5577C112.796 18.5577 112.968 18.6105 113.152 18.7292ZM120.221 20.404C120.379 20.1139 120.643 19.9952 120.893 19.9952C121.302 19.9952 121.698 20.2853 121.698 20.7205C121.698 20.8524 121.645 20.9974 121.566 21.1425C119.68 24.4525 116.687 26.8395 113.416 28.0791C113.284 28.1319 113.165 28.145 113.06 28.145C112.585 28.145 112.269 27.7362 112.269 27.3406C112.269 27.0505 112.414 26.7735 112.783 26.6417C115.777 25.5075 118.638 23.2261 120.221 20.404Z" fill="white"/>
<path d="M128.503 20.8919L132.67 20.1534C132.815 20.127 132.947 20.1139 133.079 20.1139C133.87 20.1139 134.358 20.5754 134.358 21.248C134.358 21.5117 134.279 21.815 134.12 22.1315C133.646 23.0547 132.947 23.991 132.195 24.6372C132.01 24.7954 131.813 24.8614 131.641 24.8614C131.232 24.8614 130.903 24.5317 130.903 24.1624C130.903 23.9646 130.995 23.7404 131.219 23.5558C131.799 23.0547 132.301 22.4349 132.63 21.8282C132.657 21.7623 132.683 21.7227 132.683 21.6832C132.683 21.6172 132.63 21.5777 132.538 21.5777C132.512 21.5777 132.472 21.5909 132.432 21.5909L128.503 22.2898V25.8768C128.503 26.6549 128.674 26.8527 129.848 26.8527C131.127 26.8527 132.182 26.7604 133.29 26.5625C133.342 26.5494 133.395 26.5494 133.448 26.5494C133.87 26.5494 134.107 26.8922 134.107 27.2615C134.107 27.578 133.909 27.9077 133.474 27.9868C132.301 28.1978 131.232 28.2637 129.979 28.2637C127.513 28.2637 126.973 27.6175 126.973 26.1274V22.5667L124.678 22.9755C124.625 22.9887 124.586 22.9887 124.533 22.9887C124.111 22.9887 123.874 22.6195 123.874 22.2634C123.874 21.9733 124.045 21.67 124.428 21.604L126.973 21.1557V17.9511C126.973 17.5027 127.355 17.2917 127.738 17.2917C128.12 17.2917 128.503 17.5027 128.503 17.9511V20.8919Z" fill="white"/>
<path d="M144.459 22.1447V18.3335C144.459 17.8852 144.855 17.661 145.264 17.661C145.646 17.661 146.042 17.8852 146.042 18.3335V22.2502C146.042 25.5867 144.618 27.6044 142.072 28.8176C141.927 28.8835 141.796 28.9231 141.677 28.9231C141.228 28.9231 140.899 28.5407 140.899 28.145C140.899 27.8945 141.044 27.6307 141.387 27.4593C143.589 26.3779 144.459 24.7822 144.459 22.1447ZM140.978 18.5577V23.7404C140.978 24.1888 140.582 24.4262 140.187 24.4262C139.791 24.4262 139.395 24.1888 139.395 23.7404V18.5577C139.395 18.0962 139.791 17.8588 140.187 17.8588C140.582 17.8588 140.978 18.0962 140.978 18.5577Z" fill="white"/>
<path d="M152.715 18.7292C153.321 19.138 154.033 19.7182 154.653 20.3776C154.825 20.549 154.891 20.7469 154.891 20.9447C154.891 21.393 154.495 21.815 154.047 21.815C153.849 21.815 153.638 21.7359 153.453 21.5513C152.86 20.9579 152.24 20.404 151.66 19.9556C151.436 19.7842 151.343 19.5732 151.343 19.3622C151.343 18.9534 151.726 18.5577 152.187 18.5577C152.359 18.5577 152.53 18.6105 152.715 18.7292ZM159.783 20.404C159.942 20.1139 160.205 19.9952 160.456 19.9952C160.865 19.9952 161.26 20.2853 161.26 20.7205C161.26 20.8524 161.208 20.9974 161.128 21.1425C159.243 24.4525 156.249 26.8395 152.979 28.0791C152.847 28.1319 152.728 28.145 152.622 28.145C152.148 28.145 151.831 27.7362 151.831 27.3406C151.831 27.0505 151.976 26.7735 152.346 26.6417C155.339 25.5075 158.201 23.2261 159.783 20.404Z" fill="white"/>
<path d="M168.685 19.5204L171.151 19.494C172.245 19.4809 172.799 19.916 172.799 20.7073C172.799 20.9183 172.76 21.1557 172.681 21.4062C171.771 24.4789 169.516 27.2747 166.641 28.8704C166.483 28.9627 166.337 28.989 166.206 28.989C165.77 28.989 165.454 28.633 165.454 28.2374C165.454 27.9868 165.599 27.7099 165.915 27.5252C168.54 25.9823 170.294 23.7668 171.098 21.2612C171.125 21.1952 171.138 21.1293 171.138 21.0765C171.138 20.9315 171.032 20.8655 170.782 20.8655L167.828 20.8919C167.181 21.8414 166.43 22.725 165.678 23.3975C165.48 23.5822 165.269 23.6481 165.071 23.6481C164.676 23.6481 164.333 23.3448 164.333 22.9492C164.333 22.7514 164.438 22.5272 164.663 22.3162C165.915 21.182 167.155 19.4017 167.841 17.7797C167.986 17.4368 168.276 17.2785 168.566 17.2785C168.962 17.2785 169.344 17.5555 169.344 17.9775C169.344 18.0698 169.318 18.1753 169.278 18.2808C169.107 18.6896 168.909 19.0984 168.685 19.5204ZM172.048 18.2017C171.969 18.1094 171.942 18.0039 171.942 17.9115C171.942 17.6478 172.206 17.4236 172.496 17.4236C172.628 17.4236 172.773 17.4764 172.892 17.6082C173.221 17.9643 173.577 18.4259 173.815 18.8479C173.881 18.9534 173.907 19.0589 173.907 19.1644C173.907 19.4677 173.643 19.6919 173.366 19.6919C173.195 19.6919 173.037 19.5995 172.918 19.4017C172.654 18.9402 172.325 18.5314 172.048 18.2017ZM173.459 17.2785C173.38 17.1862 173.34 17.0807 173.34 16.9884C173.34 16.7247 173.604 16.5269 173.881 16.5269C174.026 16.5269 174.184 16.5796 174.316 16.7115C174.632 17.0412 174.988 17.4764 175.226 17.8852C175.305 18.017 175.345 18.1357 175.345 18.2412C175.345 18.5445 175.094 18.7555 174.817 18.7555C174.646 18.7555 174.461 18.6632 174.329 18.4654C174.065 18.0566 173.736 17.6214 173.459 17.2785Z" fill="white"/>
<path d="M178.444 17.4632H184.418C185.459 17.4632 186.04 17.9511 186.04 18.5709C186.04 18.9402 185.842 19.3358 185.407 19.7182C184.826 20.2325 184.127 20.7073 183.468 21.1029C183.574 21.2348 183.626 21.3799 183.626 21.5117C183.626 21.5645 183.626 21.604 183.613 21.6568H186.804C187.728 21.6568 188.229 22.1315 188.229 22.725C188.229 23.0151 188.097 23.3448 187.833 23.6613C187.292 24.3075 186.646 24.8482 186.026 25.2042C185.868 25.2965 185.723 25.3361 185.578 25.3361C185.169 25.3361 184.853 24.9932 184.853 24.6372C184.853 24.4262 184.971 24.202 185.248 24.0305C185.657 23.78 186.066 23.4899 186.316 23.2129C186.369 23.147 186.396 23.0942 186.396 23.0679C186.396 23.0151 186.343 22.9887 186.211 22.9887H183.086V27.3274C183.086 28.5011 182.532 29.0286 181.292 29.0286C180.896 29.0286 180.58 29.0022 180.237 28.9231C179.855 28.8308 179.683 28.5275 179.683 28.2374C179.683 27.8681 179.934 27.512 180.369 27.512C180.422 27.512 180.474 27.512 180.527 27.5252C180.725 27.5648 180.91 27.5912 181.226 27.5912C181.529 27.5912 181.635 27.4725 181.635 27.1428V22.9887H176.874C176.492 22.9887 176.307 22.659 176.307 22.3162C176.307 21.9865 176.492 21.6568 176.874 21.6568H182.004C181.477 21.1952 180.976 20.8128 180.501 20.5095C180.237 20.338 180.132 20.127 180.132 19.9292C180.132 19.5864 180.448 19.283 180.831 19.283C180.949 19.283 181.081 19.3094 181.213 19.3885C181.609 19.6127 182.017 19.8765 182.439 20.193C182.993 19.8633 183.534 19.494 184.022 19.072C184.101 19.0061 184.141 18.9402 184.141 18.9006C184.141 18.8347 184.061 18.8083 183.903 18.8083H178.444C178.061 18.8083 177.863 18.4654 177.863 18.1357C177.863 17.7929 178.061 17.4632 178.444 17.4632Z" fill="white"/>
<path d="M191.526 28.6594V23.8459C190.985 23.8855 190.457 23.9119 189.956 23.9382C189.574 23.9514 189.389 23.6349 189.389 23.3184C189.389 23.0019 189.561 22.6986 189.93 22.6986C190.141 22.6986 190.365 22.6854 190.589 22.6722C190.879 22.2898 191.156 21.881 191.433 21.4722C190.932 20.8919 190.378 20.3117 189.89 19.8633C189.745 19.7314 189.679 19.5732 189.679 19.4281C189.679 19.1116 189.969 18.8215 190.312 18.8215C190.444 18.8215 190.602 18.8742 190.734 18.9929L190.774 19.0193C191.064 18.5182 191.354 17.9379 191.605 17.3577C191.723 17.0807 191.974 16.962 192.211 16.962C192.554 16.962 192.897 17.1862 192.897 17.5423C192.897 17.6214 192.884 17.7005 192.844 17.7929C192.528 18.5314 192.106 19.2567 191.684 19.9292C191.829 20.0743 191.974 20.2325 192.106 20.404C192.383 19.9292 192.646 19.4809 192.857 19.072C192.976 18.8215 193.187 18.7292 193.398 18.7292C193.741 18.7292 194.097 18.9929 194.097 19.3358C194.097 19.4281 194.071 19.5336 194.005 19.6391C193.477 20.5754 192.765 21.6832 192.093 22.5931C192.475 22.5535 192.858 22.5272 193.24 22.4876C193.174 22.3821 193.108 22.2766 193.055 22.1843C193.003 22.092 192.976 21.9997 192.976 21.9074C192.976 21.6304 193.253 21.4062 193.543 21.4062C193.728 21.4062 193.926 21.4854 194.058 21.6832C194.374 22.1315 194.743 22.8305 194.967 23.4239C194.994 23.503 195.007 23.569 195.007 23.6349C195.007 23.9778 194.677 24.202 194.361 24.202C194.15 24.202 193.952 24.0965 193.86 23.8591C193.833 23.7668 193.794 23.6745 193.754 23.5954C193.464 23.6349 193.161 23.6745 192.871 23.7009V28.6594C192.871 29.0022 192.541 29.1869 192.198 29.1869C191.868 29.1869 191.526 29.0022 191.526 28.6594ZM197.183 19.5204H199.464C200.638 19.5204 201.087 20.0084 201.087 21.0238C201.087 23.4371 200.889 25.7054 200.599 27.1692C200.348 28.4352 199.728 28.8835 198.686 28.8835C198.357 28.8835 198.027 28.8572 197.711 28.7912C197.262 28.6989 197.064 28.3824 197.064 28.0659C197.064 27.6967 197.328 27.3274 197.79 27.3274C197.829 27.3274 197.882 27.3274 197.935 27.3406C198.185 27.3934 198.409 27.4197 198.594 27.4197C198.937 27.4197 199.095 27.301 199.188 26.8395C199.451 25.468 199.636 23.358 199.636 21.2084C199.636 20.8919 199.53 20.7996 199.161 20.7996H196.59C196.392 21.182 196.181 21.5513 195.943 21.9074C195.759 22.1843 195.521 22.2898 195.284 22.2898C194.915 22.2898 194.572 21.9997 194.572 21.6304C194.572 21.4854 194.611 21.3403 194.717 21.1952C195.429 20.1402 195.983 18.8479 196.326 17.4895C196.418 17.1203 196.708 16.962 197.012 16.962C197.381 16.962 197.776 17.2258 197.776 17.6214C197.776 17.6874 197.763 17.7401 197.75 17.806C197.592 18.3863 197.407 18.9534 197.183 19.5204ZM194.229 24.7559C194.427 25.2965 194.625 25.9559 194.73 26.5362C194.743 26.5889 194.743 26.6285 194.743 26.6812C194.743 27.0373 194.44 27.2351 194.15 27.2351C193.899 27.2351 193.649 27.09 193.596 26.7999C193.504 26.2197 193.332 25.5471 193.161 25.0328C193.134 24.9669 193.134 24.9141 193.134 24.8614C193.134 24.5712 193.411 24.3866 193.702 24.3866C193.913 24.3866 194.137 24.4921 194.229 24.7559ZM190.128 24.98C190.18 24.6899 190.431 24.5449 190.682 24.5449C190.972 24.5449 191.262 24.7295 191.262 25.0592V25.1383C191.156 26.0087 190.919 26.9054 190.655 27.512C190.537 27.789 190.299 27.8945 190.075 27.8945C189.772 27.8945 189.468 27.6967 189.468 27.367C189.468 27.2879 189.495 27.1955 189.534 27.1032C189.772 26.6021 190.009 25.7449 190.128 24.98ZM197.341 22.6986C197.71 23.0942 198.067 23.5294 198.344 23.991C198.436 24.136 198.475 24.2811 198.475 24.4262C198.475 24.835 198.119 25.1515 197.737 25.1515C197.513 25.1515 197.289 25.046 197.117 24.769C196.84 24.3075 196.563 23.9119 196.234 23.5162C196.115 23.3712 196.062 23.2261 196.062 23.081C196.062 22.725 196.405 22.448 196.774 22.448C196.972 22.448 197.17 22.514 197.341 22.6986Z" fill="white"/>
<mask id="path-3-inside-1_173_65" fill="white">
<path fill-rule="evenodd" clip-rule="evenodd" d="M44.3724 31.7173C46.0809 29.4903 47 26.7998 47 23.9023C47 16.2243 40.5459 10 30.0526 10C19.5593 10 13 16.2243 13 23.9023C13 31.5804 19.5593 37.8047 30.0526 37.8047C34.1682 37.8047 37.6625 36.8472 40.3896 35.2201C40.3919 35.2206 40.3941 35.2212 40.3963 35.2218L44.9652 36.3489C45.358 36.4458 45.7066 36.0775 45.5882 35.6906L44.3724 31.7173Z"/>
</mask>
<path fill-rule="evenodd" clip-rule="evenodd" d="M44.3724 31.7173C46.0809 29.4903 47 26.7998 47 23.9023C47 16.2243 40.5459 10 30.0526 10C19.5593 10 13 16.2243 13 23.9023C13 31.5804 19.5593 37.8047 30.0526 37.8047C34.1682 37.8047 37.6625 36.8472 40.3896 35.2201C40.3919 35.2206 40.3941 35.2212 40.3963 35.2218L44.9652 36.3489C45.358 36.4458 45.7066 36.0775 45.5882 35.6906L44.3724 31.7173Z" fill="white"/>
<path d="M44.3724 31.7173L43.1823 30.8043L42.712 31.4173L42.9381 32.1562L44.3724 31.7173ZM40.3896 35.2201L40.7664 33.7682L40.1595 33.6107L39.6211 33.9319L40.3896 35.2201ZM40.3963 35.2218L40.7555 33.7654L40.7551 33.7653L40.3963 35.2218ZM44.9652 36.3489L44.606 37.8052L44.606 37.8052L44.9652 36.3489ZM45.5882 35.6906L44.1538 36.1295L44.1538 36.1295L45.5882 35.6906ZM45.5 23.9023C45.5 26.4731 44.6878 28.8419 43.1823 30.8043L45.5626 32.6303C47.474 30.1386 48.5 27.1266 48.5 23.9023H45.5ZM30.0526 11.5C39.9377 11.5 45.5 17.2569 45.5 23.9023H48.5C48.5 15.1916 41.1542 8.5 30.0526 8.5V11.5ZM14.5 23.9023C14.5 17.2684 20.1541 11.5 30.0526 11.5V8.5C18.9644 8.5 11.5 15.1801 11.5 23.9023H14.5ZM30.0526 36.3047C20.1541 36.3047 14.5 30.5362 14.5 23.9023H11.5C11.5 32.6246 18.9644 39.3047 30.0526 39.3047V36.3047ZM39.6211 33.9319C37.1577 35.4016 33.9368 36.3047 30.0526 36.3047V39.3047C34.3997 39.3047 38.1672 38.2928 41.1582 36.5082L39.6211 33.9319ZM40.7551 33.7653C40.7617 33.7669 40.7663 33.7681 40.7664 33.7682L40.0129 36.672C40.0174 36.6732 40.0265 36.6755 40.0375 36.6782L40.7551 33.7653ZM45.3245 34.8925L40.7555 33.7654L40.037 36.6781L44.606 37.8052L45.3245 34.8925ZM44.1538 36.1295C43.9314 35.4025 44.5863 34.7104 45.3245 34.8925L44.606 37.8052C46.1297 38.1811 47.4817 36.7525 47.0225 35.2517L44.1538 36.1295ZM42.9381 32.1562L44.1538 36.1295L47.0225 35.2517L45.8068 31.2784L42.9381 32.1562Z" fill="white" mask="url(#path-3-inside-1_173_65)"/>
<path d="M20.376 20.196V25.344C20.376 25.542 20.484 25.641 20.673 25.641H23.274C23.697 25.641 23.976 25.83 23.976 26.316C23.976 26.802 23.724 27 23.274 27H20.079C19.206 27 18.801 26.676 18.801 25.722V20.196C18.801 19.944 18.846 19.467 19.575 19.467C20.142 19.467 20.376 19.71 20.376 20.196Z" fill="#02C300"/>
<path d="M26.7039 20.196V26.46C26.7039 26.721 26.6589 27.198 25.9299 27.198C25.3719 27.198 25.1379 26.955 25.1379 26.469V20.196C25.1379 19.944 25.1829 19.467 25.9119 19.467C26.4699 19.467 26.7039 19.71 26.7039 20.196Z" fill="#02C300"/>
<path d="M32.073 26.577L29.931 21.726L29.877 21.618V26.46C29.877 26.721 29.832 27.198 29.103 27.198C28.536 27.198 28.302 26.955 28.302 26.469V20.25C28.302 19.872 28.446 19.467 29.49 19.467C30.093 19.467 30.39 19.611 30.597 20.088L32.739 24.939L32.793 25.047V20.196C32.793 19.944 32.838 19.467 33.567 19.467C34.125 19.467 34.359 19.71 34.359 20.196V26.415C34.359 26.793 34.224 27.198 33.18 27.198C32.577 27.198 32.28 27.054 32.073 26.577Z" fill="#02C300"/>
<path d="M37.5411 22.599H40.2861C40.9071 22.599 40.9701 23.004 40.9701 23.247C40.9701 23.544 40.8801 23.895 40.2861 23.895H37.5411V25.344C37.5411 25.533 37.6491 25.641 37.8381 25.641H40.7811C41.2041 25.641 41.4741 25.839 41.4741 26.316C41.4741 26.793 41.2311 27 40.7811 27H37.2441C36.3711 27 35.9661 26.676 35.9661 25.722V20.943C35.9661 19.98 36.3801 19.665 37.2441 19.665H40.5831C40.9341 19.665 41.2761 19.8 41.2761 20.34C41.2761 20.7 41.1411 21.024 40.5831 21.024H37.8381C37.6401 21.024 37.5411 21.132 37.5411 21.321V22.599Z" fill="#02C300"/>
<path fill-rule="evenodd" clip-rule="evenodd" d="M219.267 15.3196C219.643 14.9148 220.276 14.8914 220.68 15.2672L226.891 21.0344C227.743 21.8257 227.743 23.1743 226.891 23.9656L220.68 29.7328C220.276 30.1086 219.643 30.0852 219.267 29.6805C218.891 29.2757 218.915 28.643 219.32 28.2672L225.53 22.5L219.32 16.7328C218.915 16.357 218.891 15.7243 219.267 15.3196Z" fill="white"/>
</svg>
