<svg width="39" height="31" viewBox="0 0 39 31" fill="none" xmlns="http://www.w3.org/2000/svg">
<g clip-path="url(#clip0_141_4337)">
<path fill-rule="evenodd" clip-rule="evenodd" d="M33.4286 12.4286H5.57143C4.15126 12.4286 3 13.5799 3 15V24.75C3 26.1702 4.15127 27.3214 5.57143 27.3214H33.4286C34.8487 27.3214 36 26.1702 36 24.75V15C36 13.5799 34.8487 12.4286 33.4286 12.4286ZM5.57143 9.42859C2.49441 9.42859 0 11.923 0 15V24.75C0 27.827 2.49442 30.3214 5.57143 30.3214H33.4286C36.5056 30.3214 39 27.827 39 24.75V15C39 11.923 36.5056 9.42859 33.4286 9.42859H5.57143Z" fill="#333333"/>
</g>
<path fill-rule="evenodd" clip-rule="evenodd" d="M30.6066 12.5147L21.0606 22.0607C20.4748 22.6464 19.5251 22.6464 18.9393 22.0607L9.39335 12.5147C8.80757 11.9289 8.80757 10.9792 9.39335 10.3934C9.97914 9.80761 10.9289 9.80761 11.5147 10.3934L18.5 17.3787V2C18.5 1.17157 19.1715 0.5 20 0.5C20.8284 0.5 21.5 1.17157 21.5 2V17.3787L28.4852 10.3934C29.071 9.80761 30.0208 9.80761 30.6066 10.3934C31.1923 10.9792 31.1923 11.9289 30.6066 12.5147Z" fill="#333333"/>
<defs>
<clipPath id="clip0_141_4337">
<rect width="39" height="9" fill="white" transform="translate(0 22)"/>
</clipPath>
</defs>
</svg>
