<?xml version="1.0" encoding="utf-8"?>
<!-- Generator: Adobe Illustrator 27.7.0, SVG Export Plug-In . SVG Version: 6.00 Build 0)  -->
<svg version="1.1" id="レイヤー_1" xmlns="http://www.w3.org/2000/svg" xmlns:xlink="http://www.w3.org/1999/xlink" x="0px"
	 y="0px" viewBox="0 0 75 57" style="enable-background:new 0 0 75 57;" xml:space="preserve">
<style type="text/css">
	.st0{fill:#FC7B9A;}
</style>
<path class="st0" d="M39.6,39.8c0,11.4-8.2,16.9-17.4,16.9S4.9,51.3,4.9,39.8V17c0-11.8,8.2-17,17.4-17s17.3,5.3,17.3,17V39.8z
	 M30.4,17.5c0-5.9-3.1-9.4-8.1-9.4s-8.2,3.4-8.2,9.4v21.8c0,5.9,3.1,9.4,8.2,9.4c5,0,8.1-3.4,8.1-9.4V17.5z"/>
<path class="st0" d="M64.7,0.1v56.6h-9.4V10.2l-8,5.5V6.2L55.9,0h8.8V0.1z"/>
</svg>
