<svg width="60" height="57" viewBox="0 0 60 57" fill="none" xmlns="http://www.w3.org/2000/svg">
<path d="M35.6431 39.8401C35.6431 51.2801 27.4831 56.7201 18.2831 56.7201C9.0831 56.7201 0.923096 51.2801 0.923096 39.8401V17.0401C0.923096 5.28008 9.0831 0.0800781 18.2831 0.0800781C27.4831 0.0800781 35.6431 5.28008 35.6431 16.9601V39.8401ZM26.3631 17.5201C26.3631 11.6001 23.2431 8.16008 18.2831 8.16008C13.2431 8.16008 10.1231 11.6001 10.1231 17.5201V39.2801C10.1231 45.2001 13.2431 48.6401 18.2831 48.6401C23.2431 48.6401 26.3631 45.2001 26.3631 39.2801V17.5201Z" fill="#FC7B9A"/>
<path d="M60 0.800078V56.0001H50.72V10.8001L42.8 16.2401V6.88008L51.28 0.800078H60Z" fill="#FC7B9A"/>
</svg>
