<svg width="75" height="57" viewBox="0 0 75 57" fill="none" xmlns="http://www.w3.org/2000/svg">
<path d="M35.6431 39.8401C35.6431 51.2801 27.4831 56.7201 18.2831 56.7201C9.0831 56.7201 0.923096 51.2801 0.923096 39.8401V17.0401C0.923096 5.28008 9.0831 0.0800781 18.2831 0.0800781C27.4831 0.0800781 35.6431 5.28008 35.6431 16.9601V39.8401ZM26.3631 17.5201C26.3631 11.6001 23.2431 8.16008 18.2831 8.16008C13.2431 8.16008 10.1231 11.6001 10.1231 17.5201V39.2801C10.1231 45.2001 13.2431 48.6401 18.2831 48.6401C23.2431 48.6401 26.3631 45.2001 26.3631 39.2801V17.5201Z" fill="#FC7B9A"/>
<path d="M73.76 48.0001V56.0001H40.4V49.4401L59.36 27.2001C62.96 23.0401 64.96 19.4401 64.96 15.6001C64.96 10.5601 61.2 8.00008 57.12 8.00008C52.8 8.00008 49.52 10.6401 49.28 15.6001H40.8C40.8 6.24008 48.32 0.0800781 57.44 0.0800781C66.88 0.0800781 74.16 6.48008 74.16 15.7601C74.16 22.7201 69.36 28.1601 65.84 32.4001L52.8 48.0001H73.76Z" fill="#FC7B9A"/>
</svg>
