<svg width="75" height="57" viewBox="0 0 75 57" fill="none" xmlns="http://www.w3.org/2000/svg">
<path d="M35.6431 39.8401C35.6431 51.2801 27.4831 56.7201 18.2831 56.7201C9.0831 56.7201 0.923096 51.2801 0.923096 39.8401V17.0401C0.923096 5.28008 9.0831 0.0800781 18.2831 0.0800781C27.4831 0.0800781 35.6431 5.28008 35.6431 16.9601V39.8401ZM26.3631 17.5201C26.3631 11.6001 23.2431 8.16008 18.2831 8.16008C13.2431 8.16008 10.1231 11.6001 10.1231 17.5201V39.2801C10.1231 45.2001 13.2431 48.6401 18.2831 48.6401C23.2431 48.6401 26.3631 45.2001 26.3631 39.2801V17.5201Z" fill="#FC7B9A"/>
<path d="M52 31.5201V23.5201H55.84C61.6 23.5201 64.72 20.4801 64.72 15.2801C64.72 11.2801 61.6 8.00008 56.88 8.00008C52.4 8.00008 49.44 10.9601 49.04 14.8001H40.56C40.8 5.92008 48.32 0.0800781 57.2 0.0800781C66.88 0.0800781 73.92 6.72008 73.92 15.0401C73.92 21.0401 70.4 25.2001 66.08 27.3601C71.12 29.6001 74.72 33.9201 74.72 40.7201C74.72 49.4401 68.48 56.7201 57.84 56.7201C46.64 56.7201 40.32 50.3201 39.84 41.6001H48.32C48.96 45.6001 51.76 48.6401 57.44 48.6401C62.24 48.6401 65.52 45.1201 65.52 40.4801C65.52 34.8801 62.24 31.5201 55.84 31.5201H52Z" fill="#FC7B9A"/>
</svg>
