<svg width="163" height="125" viewBox="0 0 163 125" fill="none" xmlns="http://www.w3.org/2000/svg">
<g clip-path="url(#clip0_239_18)">
<path d="M96.9076 28.6997H55.1753V33.3623H96.9076V28.6997Z" fill="#EC829B"/>
<path d="M80.8811 46.1309H55.1753V50.7934H80.8811V46.1309Z" fill="#EC829B"/>
<path d="M90.1789 63.5688H55.1753V68.2314H90.1789V63.5688Z" fill="#EC829B"/>
<path d="M96.9076 80.9995H55.1753V85.6621H96.9076V80.9995Z" fill="#EC829B"/>
<path d="M137.798 98.3229H120.383V89.6864C118.771 89.1628 117.209 88.5315 115.705 87.7998V98.3229H77.8946C76.6064 98.3229 75.5557 99.3702 75.5557 100.654C75.5557 111.507 68.129 120.337 59.0038 120.337C49.8787 120.337 42.452 111.507 42.452 100.654V24.3458C42.452 16.2616 38.9977 9.08843 33.6939 4.66257H99.1529C107.99 4.66257 115.237 12.9476 115.676 23.3344C117.137 22.6171 118.655 22.0002 120.224 21.4837C118.986 9.40405 110.012 0 99.1529 0H21.2296C9.52093 0 0 10.9248 0 24.3458C0 25.6298 1.05068 26.6771 2.33885 26.6771H37.7743V100.647C37.7743 114.075 47.2952 124.993 59.0038 124.993H118.907C130.609 124.993 140.137 114.068 140.137 100.647C140.137 99.363 139.086 98.3157 137.798 98.3157V98.3229ZM4.79285 22.0145C5.76437 12.2518 12.7665 4.66257 21.2296 4.66257C29.6926 4.66257 36.6876 12.259 37.6663 22.0145H4.79285ZM118.907 120.337H71.4825C76.2682 116.335 79.5426 110.101 80.1327 102.985H135.344C134.372 112.748 127.37 120.337 118.914 120.337H118.907Z" fill="#EC829B"/>
<path d="M139.813 37.9966L131.501 49.5669L123.182 37.9966H117.511L127.406 51.7261H119.648V55.6713H129.097V57.5866H119.648V61.539H129.097V73.1165H129.616H133.387H133.897V61.539H143.346V57.5866H133.897V55.6713H143.346V51.7261H135.589L145.484 37.9966H139.813Z" fill="#EC829B"/>
<path d="M131.501 24.1592C114.129 24.1592 100.002 38.2473 100.002 55.5562C100.002 72.8651 114.136 86.9533 131.501 86.9533C148.866 86.9533 163 72.8651 163 55.5562C163 38.2473 148.866 24.1592 131.501 24.1592ZM131.501 82.2979C116.712 82.2979 104.68 70.3043 104.68 55.5634C104.68 40.8225 116.712 28.8289 131.501 28.8289C146.29 28.8289 158.322 40.8225 158.322 55.5634C158.322 70.3043 146.29 82.2979 131.501 82.2979Z" fill="#EC829B"/>
</g>
<defs>
<clipPath id="clip0_239_18">
<rect width="163" height="125" fill="white"/>
</clipPath>
</defs>
</svg>
