<svg width="71" height="71" viewBox="0 0 71 71" fill="none" xmlns="http://www.w3.org/2000/svg">
<path d="M58.9853 16.2376L66.7791 24.0293L71 19.8084L51.1938 0L46.9729 4.22089L54.7624 12.0169L47.6858 19.0935L30.9195 2.32705L26.6986 6.55225L32.6593 12.5108L0 45.1724L10.8034 55.9757L0 66.7792L6.5804 68.6426L15.0243 60.1966L25.8319 71L58.4892 38.3428L64.4498 44.3014L68.6728 40.0805L51.9067 23.3142L58.9853 16.2376ZM54.2662 34.1176L25.8319 62.5541L8.44387 45.1724L14.1576 39.4587L20.66 45.9632L23.1453 43.4779L16.6406 36.9734L21.6069 32.0071L28.1114 38.5117L30.5945 36.0286L24.092 29.5241L29.0583 24.5578L35.5607 31.0603L38.0438 28.575L31.5436 22.0748L36.8802 16.7337L54.2662 34.1176Z" fill="#EC829B"/>
</svg>
