<svg width="188" height="84" viewBox="0 0 188 84" fill="none" xmlns="http://www.w3.org/2000/svg">
<g clip-path="url(#clip0_239_9)">
<path d="M63.981 60.5903C31.0787 71.609 13.5341 52.846 12.7912 52.0295C12.0144 51.1709 10.6804 51.0952 9.81079 51.8696C8.94116 52.644 8.87362 53.974 9.65037 54.841C9.83612 55.0431 11.0012 56.3057 13.1036 57.9724C12.5632 58.8984 11.9806 59.8243 11.187 60.6071C10.3343 61.5078 9.36331 62.3243 8.26572 62.9978C7.17658 63.6796 5.99456 64.2604 4.75344 64.715C3.5292 65.1695 2.17833 65.5231 0.937208 65.7082H0.861221C0.363085 65.7924 -0.0168499 66.2217 -0.00840692 66.7352C3.60721e-05 67.2908 0.4644 67.7369 1.02164 67.7285C2.58359 67.7032 4.00201 67.5012 5.47109 67.1813C6.92329 66.8531 8.35015 66.3732 9.7348 65.7419C11.1279 65.119 12.445 64.2857 13.6692 63.3008C14.7331 62.4843 15.628 61.4573 16.4639 60.3799C18.448 61.6678 20.8458 63.0062 23.6742 64.2099C23.176 65.0433 22.661 65.8766 22.0784 66.651C21.3608 67.6696 20.5334 68.5955 19.6806 69.5046C18.811 70.3969 17.8738 71.2302 16.8776 71.9963C15.8982 72.7454 14.7922 73.4693 13.7705 73.9576L13.6777 73.9997C13.188 74.2354 12.9347 74.8078 13.112 75.3381C13.3062 75.9105 13.931 76.2219 14.5051 76.0367C15.9488 75.5569 17.1477 74.9593 18.372 74.2522C19.5793 73.5535 20.736 72.7623 21.8336 71.8868C22.9143 71.003 23.9781 70.0686 24.9237 69.0416C25.9031 68.0315 26.7812 66.9288 27.6339 65.8008C27.6508 65.7756 27.6677 65.7419 27.693 65.7167C29.8713 66.4322 32.2354 67.0382 34.7936 67.476C34.5572 68.4187 34.2955 69.3699 33.9408 70.2875C33.5271 71.4744 32.9783 72.6023 32.3958 73.7219C31.7963 74.833 31.104 75.8936 30.3441 76.9038C29.5927 77.897 28.6977 78.8903 27.8281 79.6479L27.7521 79.7153C27.3384 80.0772 27.254 80.6917 27.5579 81.1547C27.8957 81.6597 28.5795 81.7944 29.0861 81.4577C30.361 80.6075 31.3657 79.6984 32.3789 78.6883C33.3667 77.6782 34.287 76.6007 35.106 75.4391C35.9165 74.2774 36.6933 73.0821 37.3265 71.8026C37.9682 70.5905 38.4916 69.3279 38.9729 68.0399C40.5855 68.1915 42.2572 68.2756 44.0049 68.2756C45.0434 68.2756 46.1072 68.2336 47.1879 68.1746C47.1372 68.9406 47.0612 69.7066 46.9177 70.4727C46.6982 71.8532 46.352 73.2252 45.9046 74.5721C45.4655 75.9189 44.9336 77.2489 44.3004 78.5368C43.6756 79.8163 42.9411 81.1042 42.1643 82.2237L42.1221 82.2827C41.8013 82.7372 41.8773 83.3601 42.2994 83.7389C42.7553 84.143 43.4561 84.0925 43.8529 83.6379C44.9336 82.4173 45.8201 81.1884 46.6644 79.8668C47.5003 78.5536 48.2433 77.1815 48.9018 75.7505C49.5604 74.3279 50.1176 72.838 50.5482 71.306C50.8944 70.178 51.1223 69.008 51.3081 67.8295C54.3391 67.4591 57.5306 66.8278 60.874 65.9271C60.8318 66.71 60.7811 67.5096 60.7136 68.2841C60.5869 69.7151 60.4181 71.1461 60.1817 72.5602C59.7088 75.3717 59.0334 78.1832 57.7923 80.616L57.767 80.6665C57.4968 81.2052 57.6656 81.8702 58.1891 82.2069C58.7463 82.5604 59.4893 82.4005 59.8439 81.8449C61.5832 79.1429 62.5963 76.2051 63.4069 73.2589C63.8121 71.7858 64.1414 70.2959 64.4285 68.806C64.6902 67.4339 64.9097 66.087 65.087 64.656C65.1546 64.6308 65.2221 64.614 65.2897 64.5887C66.3957 64.2183 66.9867 63.023 66.6152 61.9203C66.2437 60.8176 65.0448 60.2283 63.9388 60.5987L63.981 60.5903Z" fill="#EC829B"/>
<path d="M143.455 65.7169H143.379C142.138 65.5233 140.795 65.1613 139.563 64.7152C138.321 64.2606 137.139 63.6798 136.05 62.998C134.953 62.3246 133.982 61.5081 133.129 60.6074C132.344 59.8245 131.753 58.8986 131.212 57.9726C133.315 56.3059 134.48 55.0433 134.666 54.8413C135.442 53.9742 135.366 52.6527 134.505 51.8782C133.644 51.1038 132.31 51.1712 131.525 52.0298C130.79 52.8379 113.254 71.6177 80.3351 60.599C79.229 60.2286 78.0301 60.8178 77.6586 61.9205C77.2871 63.0232 77.8866 64.2186 78.9842 64.5889C79.0517 64.6142 79.1193 64.631 79.1868 64.6563C79.3641 66.0789 79.5836 67.4257 79.8454 68.8062C80.1409 70.2961 80.4617 71.786 80.867 73.2591C81.6859 76.1969 82.6906 79.1431 84.4299 81.8452C84.7592 82.3502 85.4262 82.5438 85.975 82.2661C86.566 81.9714 86.8024 81.2475 86.4984 80.6583L86.4731 80.6078C85.232 78.1751 84.5565 75.372 84.0837 72.5521C83.8473 71.1379 83.6869 69.7069 83.5518 68.2759C83.4843 67.493 83.4336 66.7018 83.3914 65.9189C86.7348 66.8196 89.9347 67.4509 92.9573 67.8213C93.1431 68.9998 93.371 70.1698 93.7172 71.2978C94.1478 72.8298 94.705 74.3198 95.3636 75.7424C96.0137 77.1734 96.7567 78.5454 97.601 79.8586C98.4453 81.1802 99.3318 82.4092 100.412 83.6297C100.776 84.0422 101.409 84.1264 101.873 83.8065C102.371 83.4614 102.498 82.7711 102.152 82.2745L102.11 82.2155C101.333 81.1044 100.59 79.8081 99.9734 78.5286C99.3402 77.2407 98.8083 75.9107 98.3693 74.5639C97.9218 73.2171 97.5756 71.845 97.3561 70.4645C97.2126 69.6985 97.1366 68.9325 97.0859 68.1664C98.1666 68.2254 99.2305 68.2675 100.269 68.2675C102.008 68.2675 103.68 68.1833 105.301 68.0318C105.782 69.3197 106.306 70.5907 106.947 71.7945C107.581 73.0655 108.357 74.2693 109.168 75.4309C109.995 76.5841 110.907 77.67 111.895 78.6801C112.9 79.6987 113.913 80.5994 115.188 81.4495C115.644 81.7526 116.26 81.6768 116.631 81.2559C117.028 80.8014 116.986 80.1027 116.53 79.7071L116.454 79.6397C115.585 78.8821 114.698 77.8889 113.938 76.8956C113.178 75.8855 112.478 74.8248 111.887 73.7137C111.304 72.5941 110.755 71.4662 110.341 70.2793C109.995 69.3618 109.734 68.419 109.489 67.4678C112.047 67.0216 114.419 66.4156 116.598 65.7085C116.615 65.7337 116.631 65.7674 116.648 65.7927C117.501 66.9206 118.379 68.0149 119.359 69.0335C120.313 70.0688 121.376 70.9948 122.449 71.8786C123.546 72.7541 124.703 73.5453 125.91 74.244C127.143 74.9427 128.333 75.5487 129.777 76.0286C130.292 76.1969 130.875 75.9696 131.12 75.4646C131.381 74.9174 131.153 74.2608 130.605 73.9999L130.52 73.9578C129.499 73.4612 128.393 72.7457 127.413 71.9965C126.417 71.2305 125.48 70.4055 124.61 69.5049C123.757 68.5957 122.93 67.6614 122.212 66.6513C121.63 65.8684 121.115 65.0435 120.617 64.2101C123.445 63.0064 125.843 61.6596 127.827 60.3801C128.663 61.4576 129.558 62.4761 130.621 63.301C131.837 64.2859 133.163 65.1192 134.556 65.7422C135.941 66.3735 137.376 66.8533 138.82 67.1816C140.289 67.5014 141.707 67.7035 143.269 67.7287C143.767 67.7371 144.215 67.3752 144.291 66.8617C144.375 66.3061 143.987 65.7927 143.438 65.7085L143.455 65.7169Z" fill="#EC829B"/>
<path d="M187.468 9.46985L186.117 5.75765C184.462 1.22052 179.405 -1.12801 174.863 0.521854L142.011 12.4413C141.353 12.677 141.015 13.4009 141.251 14.0575L144.063 21.7681L124.568 28.8389L121.908 21.5492L119.527 22.4162L122.187 29.7059L118.092 31.1875L115.433 23.8977L113.052 24.7648L115.711 32.0545L111.616 33.536L108.957 26.2463L106.576 27.1133L109.235 34.403L105.141 35.8845L102.481 28.5948L100.1 29.4618L102.76 36.7515L98.6648 38.233L96.0052 30.9433L93.6243 31.8104L96.2839 39.1001L92.1975 40.5816L89.5379 33.2919L87.157 34.1589L89.8165 41.4486L85.7301 42.9301L83.0706 35.6404L80.6897 36.5074L82.792 42.2651L75.2355 39.0917L74.2561 41.4149L83.2226 45.1861L78.7815 53.8226L81.0358 54.9758L84.7761 47.7029L86.8784 53.4606L89.2593 52.5936L86.5998 45.3039L90.6862 43.8224L93.3457 51.1121L95.7266 50.2451L93.0671 42.9554L97.1535 41.4739L99.813 48.7636L102.194 47.8965L99.5344 40.6068L103.629 39.1253L106.289 46.415L108.67 45.548L106.01 38.2583L110.105 36.7768L112.765 44.0665L115.145 43.1995L112.486 35.9098L116.581 34.4283L119.24 41.718L121.621 40.8509L118.962 33.5612L123.057 32.0797L125.716 39.3694L128.097 38.5024L125.438 31.2127L144.932 24.1419L147.744 31.8525C147.862 32.1639 148.098 32.4249 148.402 32.568C148.571 32.6437 148.757 32.6858 148.934 32.6858C149.078 32.6858 149.23 32.6605 149.365 32.61L176.214 22.8708L182.217 20.6906C186.767 19.0407 189.123 14.007 187.468 9.46143V9.46985ZM144.054 14.3858L168.522 5.50512L174.154 20.9263L149.686 29.807L144.054 14.3858ZM181.347 18.3168L176.534 20.0677L170.903 4.64652L175.715 2.89564C178.958 1.71716 182.546 3.39228 183.728 6.62467L185.079 10.3369C186.261 13.5693 184.581 17.1468 181.339 18.3252L181.347 18.3168Z" fill="#EC829B"/>
</g>
<defs>
<clipPath id="clip0_239_9">
<rect width="188" height="84" fill="white"/>
</clipPath>
</defs>
</svg>
