<svg width="120" height="164" viewBox="0 0 120 164" fill="none" xmlns="http://www.w3.org/2000/svg">
<g clip-path="url(#clip0_239_26)">
<path d="M110.273 9.69523H94.4367L93.6043 14.4016H110.28C113.052 14.4016 115.303 16.6535 115.303 19.4266V154.276C115.303 157.049 113.052 159.301 110.28 159.301H9.72738C6.95537 159.301 4.70446 157.049 4.70446 154.276V19.4194C4.70446 16.6462 6.95537 14.3944 9.72738 14.3944H26.4029L25.5706 9.68799H9.72738C4.36429 9.69523 0 14.0541 0 19.4194V154.269C0 159.634 4.36429 164 9.72738 164H110.273C115.636 164 120 159.634 120 154.269V19.4194C120 14.0541 115.636 9.68799 110.273 9.68799V9.69523Z" fill="#EC829B"/>
<path d="M32.5549 16.9793C33.3293 21.3237 37.3896 24.734 41.7973 24.734H78.1954C82.6104 24.734 86.6707 21.3309 87.4379 16.9793L88.9288 8.58022C89.3196 6.37183 88.7696 4.17068 87.4089 2.55602C86.0482 0.941364 83.9855 0.00732422 81.7418 0.00732422H38.2364C35.9927 0.00732422 33.93 0.934123 32.5693 2.55602C31.2159 4.17792 30.6586 6.37183 31.0494 8.58022L32.5404 16.9793H32.5549ZM36.1882 5.57536C36.6586 5.01783 37.3896 4.70649 38.2509 4.70649H81.7563C82.6176 4.70649 83.3486 5.01059 83.819 5.56812C84.2895 6.12565 84.4632 6.90039 84.3112 7.74754L82.8202 16.1467C82.4584 18.2102 80.3015 20.0132 78.2099 20.0132H41.8118C39.7201 20.0132 37.5633 18.203 37.2014 16.1467L35.7105 7.74754C35.5585 6.90039 35.7322 6.12565 36.2026 5.56812L36.1882 5.57536Z" fill="#EC829B"/>
<path d="M51.9373 40.9313C51.9373 39.6353 50.8806 38.5781 49.585 38.5781H19.4837C18.1882 38.5781 17.1315 39.6353 17.1315 40.9313V66.3242C17.1315 67.6202 18.1882 68.6774 19.4837 68.6774H49.5778C50.8733 68.6774 51.93 67.6202 51.93 66.3242V40.9313H51.9373ZM21.8432 63.971V43.2845H47.2328V44.0882L35.2183 56.1077L29.3269 50.2138L25.9976 53.5445L35.2183 62.769L47.2328 50.7496V63.9782H21.8359L21.8432 63.971Z" fill="#EC829B"/>
<path d="M80.3088 44.7397H60.0507V49.4461H80.3088V44.7397Z" fill="#EC829B"/>
<path d="M102.34 58.8882H60.0507V63.5946H102.34V58.8882Z" fill="#EC829B"/>
<path d="M51.9373 79.1691C51.9373 77.873 50.8806 76.8159 49.585 76.8159H19.4837C18.1882 76.8159 17.1315 77.873 17.1315 79.1691V104.562C17.1315 105.858 18.1882 106.915 19.4837 106.915H49.5778C50.8733 106.915 51.93 105.858 51.93 104.562V79.1691H51.9373ZM21.8432 102.209V81.5223H47.2328V82.3188L35.2183 94.3382L29.3269 88.4444L25.9976 91.775L35.2183 101L47.2328 88.9802V102.209H21.8359H21.8432Z" fill="#EC829B"/>
<path d="M93.9083 82.9775H60.0507V87.6839H93.9083V82.9775Z" fill="#EC829B"/>
<path d="M86.1134 97.1255H60.0507V101.832H86.1134V97.1255Z" fill="#EC829B"/>
<path d="M49.585 115.053H19.4837C18.1882 115.053 17.1315 116.11 17.1315 117.406V142.799C17.1315 144.095 18.1882 145.152 19.4837 145.152H49.5778C50.8733 145.152 51.93 144.095 51.93 142.799V117.406C51.93 116.11 50.8733 115.053 49.5778 115.053H49.585ZM21.8432 140.446V119.76H47.2328V120.563L35.2183 132.583L29.3269 126.689L25.9976 130.02L35.2183 139.244L47.2328 127.225V140.453H21.8359L21.8432 140.446Z" fill="#EC829B"/>
<path d="M83.3052 121.223H60.0507V125.929H83.3052V121.223Z" fill="#EC829B"/>
<path d="M96.0868 135.371H60.0507V140.077H96.0868V135.371Z" fill="#EC829B"/>
</g>
<defs>
<clipPath id="clip0_239_26">
<rect width="120" height="164" fill="white"/>
</clipPath>
</defs>
</svg>
