<svg width="82" height="94" viewBox="0 0 82 94" fill="none" xmlns="http://www.w3.org/2000/svg">
<path d="M35.0457 61.2897L35.0389 61.3177C32.9591 61.3194 31.2518 62.9719 31.1754 65.0521L31.1754 65.0521L31.175 65.0639C31.1084 67.1968 32.7764 68.9863 34.9158 69.0589L35.4498 69.077L35.5411 69.0333H52.7801H53.4322L53.9772 68.6752L52.7801 66.8533C53.9772 68.6752 53.9773 68.6751 53.9774 68.675L53.9779 68.6747L53.98 68.6733L53.9881 68.668L54.0197 68.6472L54.1427 68.5663L54.6108 68.2581C55.0149 67.9918 55.5944 67.6096 56.2964 67.1454C57.7 66.2171 59.5946 64.9604 61.5568 63.6474C65.2453 61.1792 69.3651 58.3858 70.743 57.2889C73.9771 55.4714 75.7094 55.2503 76.6368 55.3845C77.4863 55.5073 78.0609 55.9719 78.961 56.9541L78.9626 56.9559C79.1874 57.2006 79.4935 58.0836 79.2101 59.6393C78.9476 61.0806 78.3123 62.2889 77.7659 62.8148C77.2498 63.2325 75.2346 64.6701 72.3308 66.7007C69.4028 68.7482 65.6958 71.3132 62.052 73.8249C58.409 76.3361 54.8323 78.7918 52.1662 80.6198C50.8332 81.5338 49.7279 82.2907 48.956 82.8192L48.0613 83.4315L47.8261 83.5923L47.766 83.6335L47.7508 83.6439L47.747 83.6465L47.746 83.6471C47.7458 83.6473 47.7457 83.6473 48.9762 85.4469L47.7457 83.6473L47.7317 83.6569L47.7179 83.6667C46.887 84.254 45.8617 84.4851 44.8678 84.3118L19.1418 78.6885L19.1023 78.6798L19.0625 78.6726C17.7585 78.4379 16.4132 78.797 15.3985 79.6627L15.3947 79.666L3.17561 90.1397V71.3696L3.42707 71.0743L11.0682 62.0991C11.4247 61.7421 11.7689 61.3904 12.107 61.0452C13.8308 59.2844 15.3929 57.6889 17.5844 56.3816C20.1393 54.8575 23.65 53.6956 29.262 53.6956H29.3315H29.4008H29.47H29.539H29.6079H29.6766H29.7451H29.8135H29.8817H29.9498H30.0177H30.0854H30.153H30.2204H30.2876H30.3547H30.4217H30.4884H30.555H30.6215H30.6878H30.7539H30.8199H30.8857H30.9514H31.0169H31.0822H31.1474H31.2124H31.2773H31.342H31.4066H31.471H31.5352H31.5993H31.6633H31.727H31.7907H31.8541H31.9174H31.9806H32.0436H32.1065H32.1692H32.2317H32.2941H32.3563H32.4184H32.4803H32.5421H32.6037H32.6652H32.7265H32.7877H32.8487H32.9096H32.9703H33.0309H33.0913H33.1515H33.2116H33.2716H33.3314H33.3911H33.4506H33.5099H33.5692H33.6282H33.6871H33.7459H33.8045H33.863H33.9213H33.9795H34.0375H34.0954H34.1531H34.2107H34.2682H34.3255H34.3826H34.4396H34.4965H34.5532H34.6097H34.6662H34.7224H34.7786H34.8345H34.8904H34.9461H35.0016H35.0571H35.1123H35.1674H35.2224H35.2773H35.332H35.3865H35.4409H35.4952H35.5493H35.6033H35.6571H35.7108H35.7644H35.8178H35.8711H35.9243H35.9773H36.0301H36.0828H36.1354H36.1879H36.2402H36.2923H36.3444H36.3963H36.448H36.4996H36.5511H36.6024H36.6536H36.7047H36.7556H36.8064H36.8571H36.9076H36.958H37.0082H37.0583H37.1083H37.1581H37.2079H37.2574H37.3069H37.3562H37.4053H37.4544H37.5033H37.552H37.6007H37.6492H37.6975H37.7458H37.7939H37.8418H37.8897H37.9374H37.985H38.0324H38.0797H38.1269H38.174H38.2209H38.2677H38.3143H38.3609H38.4073H38.4535H38.4997H38.5457H38.5916H38.6373H38.683H38.7285H38.7739H38.8191H38.8642H38.9092H38.9541H38.9988H39.0434H39.0879H39.1323H39.1765H39.2206H39.2646H39.3084H39.3522H39.3958H39.4393H39.4826H39.5258H39.569H39.6119H39.6548H39.6975H39.7401H39.7826H39.825H39.8673H39.9094H39.9514H39.9933H40.035H40.0767H40.1182H40.1596H40.2008H40.242H40.283H40.3239H40.3647H40.4054H40.4459H40.4864H40.5267H40.5669H40.607H40.6469H40.6868H40.7265H40.7661H40.8056H40.8449H40.8842H40.9233H40.9623H41.0012H41.04H41.0787H41.1172H41.1557H41.194H41.2322H41.2703H41.3083H41.3461H41.3839H41.4215H41.459H41.4964H41.5337H41.5709H41.608H41.6449H41.6817H41.7185H41.7551H41.7916H41.828H41.8643H41.9004H41.9365H41.9724H42.0082H42.044H42.0796H42.1151H42.1505H42.1858H42.2209H42.256H42.2909H42.3258H42.3605H42.3951H42.4297H42.4641H42.4984H42.5326H42.5667H42.6006H42.6345H42.6683H42.7019H42.7355H42.7689H42.8023H42.8355H42.8686H42.9017H42.9346H42.9674H43.0001H43.0327H43.0652H43.0976H43.1299H43.1621H43.1942H43.2262H43.2581H43.2898H43.3215H43.3531H43.3845H43.4159H43.4472H43.4783H43.5094H43.5404H43.5712H43.602H43.6327H43.6632H43.6937H43.724H43.7543H43.7845H43.8145H43.8445H43.8743H43.9041H43.9338H43.9634H43.9928H44.0222H44.0515H44.0807H44.1097H44.1387H44.1676H44.1964H44.2251H44.2537H44.2822H44.3106H44.3389H44.3671H44.3953H44.4233H44.4512H44.4791H44.5068H44.5345H44.562H44.5895H44.6169H44.6441H44.6713H44.6984H44.7254H44.7523H44.7791H44.8059H44.8325H44.859H44.8855H44.9119H44.9381H44.9643H44.9904H45.0164H45.0423H45.0681H45.0939H45.1195H45.145H45.1705H45.1959H45.2212H45.2464H45.2715H45.2965H45.3214H45.3463H45.371H45.3957H45.4203H45.4448H45.4692H45.4935H45.5178H45.542H45.566H45.59H45.6139H45.6377H45.6615H45.6851H45.7087H45.7322H45.7556H45.7789H45.8021H45.8252H45.8483H45.8713H45.8942H45.917H45.9397H45.9624H45.985H46.0075H46.0299H46.0522H46.0744H46.0966H46.1187H46.1407H46.1626H46.1845H46.2062H46.2279H46.2495H46.2711H46.2925H46.3139H46.3352H46.3564H46.3776H46.3986H46.4196H46.4405H46.4613H46.4821H46.5028H46.5234H46.5439H46.5644H46.5847H46.605H46.6253H46.6454H46.6655H46.6855H46.7054H46.7253H46.7451H46.7648H46.7844H46.8039H46.8234H46.8428H46.8622H46.8815H46.9006H46.9198H46.9388H46.9578H46.9767H46.9955H47.0143H47.033H47.0516H47.0702H47.0887H47.1071H47.1254H47.1437H47.1619H47.1801H47.1981H47.2161H47.2341H47.2519H47.2697H47.2874H47.3051H47.3227H47.3402H47.3577H47.3751H47.3924H47.4097H47.4269H47.444H47.4611H47.4781H47.495H47.5119H47.5287H47.5454H47.5621H47.5787H47.5952H47.6117H47.6281H47.6445H47.6608H47.677H47.6932H47.7093H47.7253H47.7413H47.7572H47.7731H47.7889H47.8046H47.8203H47.8359H47.8515H47.8669H47.8824H47.8978H47.9131H47.9283H47.9435H47.9586H47.9737H47.9887H48.0037H48.0186H48.0334H48.0482H48.063H48.0776H48.0922H48.1068H48.1213H48.1357H48.1501H48.1645H48.1787H48.193H48.2071H48.2212H48.2353H48.2493H48.2632C48.861 53.6956 49.9731 54.1163 51.028 55.02C52.1176 55.9534 52.4791 56.8182 52.4791 57.1816C52.4791 57.3229 52.4139 57.6641 52.1142 58.1865C51.8273 58.6866 51.3958 59.2277 50.8677 59.7296C50.3405 60.2306 49.7671 60.6448 49.233 60.9234C48.6762 61.2138 48.2925 61.2897 48.1095 61.2897V63.4697C48.1095 61.2897 48.1095 61.2897 48.1094 61.2897H48.109H48.1085H48.1077H48.1067H48.1054H48.104H48.1023H48.1004H48.0983H48.096H48.0934H48.0906H48.0876H48.0844H48.081H48.0774H48.0735H48.0695H48.0652H48.0607H48.056H48.0511H48.046H48.0407H48.0351H48.0294H48.0234H48.0173H48.0109H48.0044H47.9976H47.9906H47.9835H47.9761H47.9685H47.9607H47.9528H47.9446H47.9362H47.9277H47.9189H47.91H47.9008H47.8915H47.8819H47.8722H47.8623H47.8522H47.8419H47.8314H47.8207H47.8098H47.7988H47.7876H47.7761H47.7645H47.7527H47.7407H47.7286H47.7162H47.7037H47.691H47.6781H47.6651H47.6518H47.6384H47.6248H47.611H47.5971H47.583H47.5687H47.5542H47.5396H47.5248H47.5098H47.4946H47.4793H47.4638H47.4482H47.4324H47.4164H47.4002H47.3839H47.3674H47.3507H47.3339H47.317H47.2998H47.2825H47.2651H47.2475H47.2297H47.2118H47.1937H47.1755H47.1571H47.1385H47.1198H47.1009H47.0819H47.0628H47.0435H47.024H47.0044H46.9846H46.9647H46.9447H46.9245H46.9041H46.8836H46.863H46.8422H46.8213H46.8003H46.7791H46.7577H46.7362H46.7146H46.6929H46.671H46.6489H46.6268H46.6045H46.582H46.5594H46.5367H46.5139H46.4909H46.4678H46.4446H46.4212H46.3978H46.3741H46.3504H46.3265H46.3026H46.2784H46.2542H46.2298H46.2053H46.1807H46.156H46.1312H46.1062H46.0811H46.0559H46.0306H46.0051H45.9796H45.9539H45.9281H45.9022H45.8762H45.8501H45.8239H45.7975H45.7711H45.7445H45.7178H45.691H45.6642H45.6372H45.6101H45.5829H45.5556H45.5281H45.5006H45.473H45.4453H45.4175H45.3896H45.3616H45.3335H45.3053H45.2769H45.2485H45.2201H45.1915H45.1628H45.134H45.1051H45.0762H45.0471H45.018H44.9888H44.9594H44.93H44.9006H44.871H44.8413H44.8116H44.7817H44.7518H44.7218H44.6918H44.6616H44.6314H44.601H44.5706H44.5402H44.5096H44.479H44.4483H44.4175H44.3867H44.3557H44.3247H44.2937H44.2625H44.2313H44.2H44.1687H44.1373H44.1058H44.0742H44.0426H44.0109H43.9792H43.9474H43.9155H43.8835H43.8515H43.8195H43.7874H43.7552H43.7229H43.6907H43.6583H43.6259H43.5934H43.5609H43.5283H43.4957H43.463H43.4303H43.3975H43.3647H43.3318H43.2989H43.2659H43.2329H43.1998H43.1667H43.1335H43.1003H43.067H43.0337H43.0004H42.967H42.9336H42.9001H42.8666H42.8331H42.7995H42.7659H42.7323H42.6986H42.6649H42.6311H42.5973H42.5635H42.5297H42.4958H42.4619H42.4279H42.394H42.36H42.3259H42.2919H42.2578H42.2237H42.1896H42.1554H42.1212H42.087H42.0528H42.0186H41.9843H41.95H41.9157H41.8814H41.8471H41.8128H41.7784H41.744H41.7096H41.6752H41.6408H41.6064H41.5719H41.5375H41.503H41.4686H41.4341H41.3996H41.3651H41.3306H41.2961H41.2616H41.2271H41.1926H41.1581H41.1236H41.089H41.0545H41.02H40.9855H40.951H40.9165H40.882H40.8475H40.813H40.7785H40.744H40.7095H40.6751H40.6406H40.6062H40.5717H40.5373H40.5029H40.4685H40.4341H40.3997H40.3654H40.331H40.2967H40.2624H40.2281H40.1938H40.1596H40.1254H40.0912H40.057H40.0228H39.9887H39.9545H39.9204H39.8864H39.8523H39.8183H39.7843H39.7504H39.7164H39.6825H39.6487H39.6148H39.581H39.5472H39.5135H39.4798H39.4461H39.4125H39.3789H39.3453H39.3118H39.2783H39.2449H39.2115H39.1781H39.1448H39.1115H39.0783H39.0451H39.0119H38.9788H38.9458H38.9128H38.8798H38.8469H38.814H38.7812H38.7485H38.7157H38.6831H38.6505H38.6179H38.5854H38.553H38.5206H38.4883H38.456H38.4238H38.3916H38.3595H38.3275H38.2955H38.2636H38.2317H38.2H38.1682H38.1366H38.105H38.0735H38.042H38.0106H37.9793H37.948H37.9168H37.8857H37.8547H37.8237H37.7928H37.762H37.7312H37.7006H37.67H37.6394H37.609H37.5786H37.5483H37.5181H37.488H37.458H37.428H37.3981H37.3683H37.3386H37.309H37.2794H37.25H37.2206H37.1913H37.1621H37.133H37.104H37.0751H37.0463H37.0175H36.9889H36.9603H36.9319H36.9035H36.8752H36.8471H36.819H36.791H36.7631H36.7354H36.7077H36.6801H36.6526H36.6253H36.598H36.5708H36.5438H36.5168H36.49H36.4632H36.4366H36.4101H36.3837H36.3574H36.3312H36.3051H36.2791H36.2533H36.2276H36.2019H36.1764H36.151H36.1257H36.1006H36.0755H36.0506H36.0258H36.0011H35.9766H35.9521H35.9278H35.9036H35.8796H35.8556H35.8318H35.8081H35.7845H35.7611H35.7378H35.7146H35.6916H35.6686H35.6459H35.6232H35.6007H35.5783H35.556H35.5339H35.512H35.4901H35.4684H35.4468H35.4254H35.4041H35.383H35.362H35.3411H35.3204H35.2998H35.2794H35.2591H35.2389H35.2189H35.1991H35.1794H35.1598H35.1404H35.1212H35.1021H35.0831H35.0643H35.0457ZM0.995605 93.2521C0.995605 93.5451 1.16654 93.8089 1.43263 93.9309C1.69873 94.0529 2.01122 94.0115 2.23341 93.8185L2.8942 93.2521L3.15779 93.0262C3.08255 92.5529 2.77454 92.148 2.34139 91.9493C1.91542 91.754 1.40783 91.7788 0.995605 92.0319L0.995605 92.3745V92.3933V93.2521ZM3.17561 93.0109L16.8135 81.3211L3.17561 93.0109ZM0.995605 73.9302L0.995605 92.0083L0.995605 73.9302Z" stroke="#EC829B" stroke-width="4.36"/>
<path d="M43.8345 6.99989C46.4503 3.93889 50.3241 2 54.6559 2C62.5343 2 68.919 8.38752 68.919 16.2631C68.919 22.8454 64.4603 28.3856 58.3987 30.0303C58.332 19.8941 52.3883 11.1593 43.8345 6.99989Z" stroke="#EC829B" stroke-width="4"/>
<path d="M16 30.2024C16 21.0408 23.4275 13.6162 32.5862 13.6162C41.7449 13.6162 49.1724 21.0408 49.1724 30.2024C49.1724 39.3608 41.7446 46.7886 32.5862 46.7886C23.4278 46.7886 16 39.3608 16 30.2024Z" stroke="#EC829B" stroke-width="4"/>
<path d="M34.4763 29.6615L35.0665 28.7429H40.5433V26.0883H36.7796L39.9807 21.1006H36.7865L32.5887 27.6269L28.3978 21.1006H25.2059L28.407 26.0883H24.6387V28.7429H30.1224L30.7103 29.6661V31.8545H24.6387V31.8614V34.5229V34.9684H30.7103V39.669H34.4763V34.9684H40.5456V34.5229V31.8614V31.8545H34.4763V29.6615Z" fill="#EC829B"/>
</svg>
