<svg width="135" height="153" viewBox="0 0 135 153" fill="none" xmlns="http://www.w3.org/2000/svg">
<g clip-path="url(#clip0_239_2)">
<path d="M60.1179 95.9003C59.2327 95.9003 58.4286 95.3666 58.0908 94.5425C47.4754 68.9209 39.1439 60.5921 13.5075 49.9732C12.6899 49.6355 12.1493 48.8317 12.1493 47.9468C12.1493 47.0619 12.6831 46.258 13.5075 45.9203C39.1439 35.3082 47.4754 26.9793 58.0908 1.35775C58.4286 0.540397 59.2327 0 60.1179 0C61.0031 0 61.8072 0.533642 62.145 1.35775C72.7604 26.9793 81.0919 35.3082 106.728 45.927C107.546 46.2648 108.087 47.0686 108.087 47.9535C108.087 48.8384 107.553 49.6422 106.728 49.98C81.0987 60.592 72.7672 68.9209 62.145 94.5493C61.8072 95.3666 61.0031 95.907 60.1179 95.907V95.9003ZM19.9335 47.9535C41.5089 57.505 50.5634 66.5634 60.1179 88.1253C69.6725 66.5567 78.7337 57.505 100.302 47.9535C78.727 38.402 69.6725 29.3436 60.1179 7.78172C50.5634 29.3503 41.5021 38.402 19.9335 47.9535Z" fill="#EC829B"/>
<path d="M106.046 139.531C105.161 139.531 104.357 138.997 104.019 138.173C97.9306 123.474 93.1466 118.691 78.4431 112.605C77.6255 112.267 77.085 111.464 77.085 110.579C77.085 109.694 77.6188 108.89 78.4431 108.552C93.1466 102.466 97.9306 97.6835 104.019 82.9847C104.357 82.1674 105.161 81.627 106.046 81.627C106.931 81.627 107.735 82.1606 108.073 82.9847C114.161 97.6835 118.945 102.466 133.649 108.552C134.466 108.89 135.007 109.694 135.007 110.579C135.007 111.464 134.473 112.267 133.649 112.605C118.945 118.691 114.161 123.474 108.073 138.173C107.735 138.99 106.931 139.531 106.046 139.531ZM84.7475 110.579C95.7143 115.706 100.91 120.9 106.046 131.87C111.175 120.907 116.371 115.713 127.344 110.579C116.377 105.452 111.181 100.257 106.046 89.2871C100.917 100.25 95.721 105.445 84.7475 110.579Z" fill="#EC829B"/>
<path d="M23.535 153C22.6498 153 21.8457 152.466 21.5078 151.642C16.6562 139.929 13.075 136.349 1.35818 131.499C0.540568 131.161 0 130.357 0 129.472C0 128.587 0.53381 127.784 1.35818 127.446C13.075 122.596 16.6562 119.016 21.5078 107.303C21.8457 106.485 22.6498 105.945 23.535 105.945C24.4201 105.945 25.2242 106.478 25.5621 107.303C30.4137 119.016 33.9949 122.596 45.7117 127.446C46.5294 127.784 47.0699 128.587 47.0699 129.472C47.0699 130.357 46.5361 131.161 45.7117 131.499C33.9949 136.349 30.4137 139.929 25.5621 151.642C25.2242 152.46 24.4201 153 23.535 153ZM7.59497 129.472C15.6021 133.35 19.6564 137.403 23.535 145.407C27.4135 137.403 31.4678 133.35 39.4749 129.472C31.4678 125.595 27.4135 121.542 23.535 113.537C19.6564 121.542 15.6021 125.595 7.59497 129.472Z" fill="#EC829B"/>
</g>
<defs>
<clipPath id="clip0_239_2">
<rect width="135" height="153" fill="white"/>
</clipPath>
</defs>
</svg>
