<svg width="64" height="82" viewBox="0 0 64 82" fill="none" xmlns="http://www.w3.org/2000/svg">
<path d="M62.4272 14.0179C61.827 12.5985 60.8285 11.3981 59.5708 10.5465C58.3132 9.69732 56.7817 9.1967 55.153 9.1967H48.3545V8.02383H38.5003C38.5451 7.70507 38.5701 7.37627 38.5701 7.04507C38.57 3.16019 35.4098 0 31.5249 0C27.64 0 24.4798 3.16019 24.4798 7.04507C24.4798 7.37627 24.5047 7.70507 24.5496 8.02383H14.6955V9.1967H7.8968C6.8135 9.1967 5.76764 9.4184 4.8238 9.81924C3.40181 10.4195 2.20152 11.418 1.34979 12.6756C0.500612 13.9357 0 15.4648 0 17.0935V73.7083C0 74.7916 0.221698 75.8351 0.620148 76.7813C1.22276 78.2007 2.22144 79.4012 3.47911 80.2528C4.73677 81.1043 6.2681 81.6026 7.8968 81.6026H55.153C56.2363 81.6026 57.2821 81.3834 58.2285 80.98C59.648 80.3823 60.8484 79.3813 61.7 78.1236C62.5492 76.8659 63.0498 75.3345 63.0498 73.7083V17.0935C63.0498 16.0078 62.8281 14.9643 62.4272 14.0179ZM31.5249 4.43029C32.9668 4.43029 34.1397 5.60316 34.1397 7.04507C34.1397 7.39125 34.0699 7.71989 33.9454 8.02383H29.1017C28.9796 7.72005 28.9099 7.39125 28.9099 7.04507C28.9101 5.60316 30.0855 4.43029 31.5249 4.43029ZM58.353 73.7083C58.353 74.1566 58.2633 74.5699 58.1015 74.951C57.8624 75.5212 57.4515 76.0144 56.9411 76.3629C56.428 76.7066 55.8254 76.9058 55.153 76.9058H7.8968C7.44847 76.9058 7.03264 76.8161 6.65156 76.6567C6.0813 76.4151 5.58818 76.0042 5.24201 75.4937C4.89584 74.9806 4.69661 74.378 4.69661 73.7081V17.0935C4.69661 16.6452 4.78634 16.2293 4.94811 15.8483C5.18973 15.2755 5.59567 14.7849 6.10856 14.4387C6.6216 14.0951 7.22422 13.8959 7.89664 13.8933H14.6952V14.8721C14.6952 16.7099 16.1844 18.1991 18.0248 18.1991H45.0247C46.8651 18.1991 48.3543 16.7099 48.3543 14.8721V13.8933H55.1528C55.6011 13.8933 56.017 13.983 56.398 14.1448C56.9683 14.3864 57.4614 14.7924 57.8076 15.3053C58.1512 15.8207 58.3505 16.4209 58.353 17.0933V73.7083Z" fill="#EC829B"/>
<path d="M48.5489 27.5923H14.4988V31.5046H48.5489V27.5923Z" fill="#EC829B"/>
<path d="M48.5489 38.3555H14.4988V42.2678H48.5489V38.3555Z" fill="#EC829B"/>
<path d="M48.5489 49.1191H14.4988V53.0314H48.5489V49.1191Z" fill="#EC829B"/>
<path d="M48.5488 62.8154H31.5249V66.7303H48.5488V62.8154Z" fill="#EC829B"/>
</svg>
