<svg width="161" height="157" viewBox="0 0 161 157" fill="none" xmlns="http://www.w3.org/2000/svg">
<g clip-path="url(#clip0_239_6)">
<path d="M69.5896 71.946C77.908 75.4887 85.0989 78.5426 87.9709 84.9124C87.9851 84.9337 87.9993 84.9479 88.0135 84.9691C88.2617 85.4722 88.6659 85.9044 89.2191 86.1524C89.5524 86.3012 89.8999 86.372 90.2402 86.372C91.1834 86.372 92.0911 85.8265 92.5025 84.9124C95.3816 78.5426 102.565 75.4817 110.884 71.946C119.365 68.3395 128.989 64.2441 136.506 55.6282C146.746 43.8946 149.703 29.4615 144.413 17.0123C140.186 7.07138 131.159 0.566915 120.847 0.0425893C104.161 -0.807668 94.3392 10.7204 90.2402 17.0406C86.1342 10.7204 76.3124 -0.793497 59.6259 0.0425893C49.3148 0.566915 40.2872 7.07138 36.0606 17.0123C30.7703 29.4544 33.7275 43.8946 43.9677 55.6282C51.4919 64.2512 61.1081 68.3395 69.5896 71.946ZM40.6276 18.9537C44.1592 10.6495 51.3571 5.42755 59.8812 4.99534C79.2199 4.01754 87.6093 22.2343 87.9709 23.035C88.0135 23.1271 88.056 23.2121 88.1057 23.283C88.361 23.7152 88.7439 24.0836 89.2403 24.2962C90.4955 24.8488 91.9564 24.282 92.5166 23.035C92.6017 22.8437 101.197 4.01046 120.606 4.99534C129.13 5.42755 136.328 10.6425 139.86 18.9537C144.392 29.6103 141.739 42.102 132.783 52.3688C126.01 60.1345 117.337 63.819 108.955 67.383C101.565 70.5218 94.5306 73.5332 90.2544 79.1236C85.9711 73.5332 78.9363 70.5289 71.5539 67.383C63.1717 63.819 54.4987 60.1274 47.7263 52.3688C38.7625 42.102 36.1174 29.6103 40.6489 18.9537H40.6276Z" fill="#EC829B"/>
<path d="M160.511 111.362C159.844 108.705 158.107 106.459 155.61 105.042C152.341 103.186 148.115 102.846 144.016 104.107L97.6226 118.115C96.5589 114.154 93.0414 110.689 87.4462 108.316L41.9041 90.4248H6.49588C2.91464 90.4248 0 93.3369 0 96.9151V131.216C0 134.794 2.91464 137.706 6.49588 137.706H25.324L78.8583 156.228L79.0994 156.298C81.0283 156.759 83.0069 156.986 84.9783 156.986C88.5525 156.986 92.1195 156.242 95.3958 154.782L152.462 127.312C158.887 124.428 162.34 117.583 160.518 111.355L160.511 111.362ZM150.398 122.805L93.3322 150.276C89.2758 152.076 84.6734 152.515 80.3546 151.509L26.5509 132.888L26.1537 132.753H6.49588C5.65198 132.753 4.9641 132.066 4.9641 131.223V96.9222C4.9641 96.079 5.65198 95.3917 6.49588 95.3917H40.9609L85.5669 112.914C88.205 114.034 94.169 117.172 92.7791 122.253C91.1622 127.298 85.0492 128.212 82.0495 127.581L49.8112 118.235L48.4284 122.997L80.7517 132.364L80.9078 132.406C86.1413 133.568 95.0413 131.606 97.5304 123.705L97.5517 123.634C97.58 123.521 97.6084 123.415 97.6368 123.309L145.462 108.868C148.228 108.018 151.1 108.209 153.157 109.371C154.086 109.896 155.277 110.888 155.703 112.617L155.738 112.737C156.731 116.081 155.008 120.772 150.398 122.827V122.805Z" fill="#EC829B"/>
</g>
<defs>
<clipPath id="clip0_239_6">
<rect width="161" height="157" fill="white"/>
</clipPath>
</defs>
</svg>
