<svg width="117" height="147" viewBox="0 0 117 147" fill="none" xmlns="http://www.w3.org/2000/svg">
<g clip-path="url(#clip0_239_13)">
<path d="M94.7435 45.8719V36.0979H81.5852V25.7462H88.4752V16.3551C88.4752 10.6179 83.8193 5.95801 78.1014 5.95801H72.8368C67.1189 5.95801 62.463 10.6244 62.463 16.3551V16.7705H48.2233C43.3019 16.7705 39.3 20.7813 39.3 25.7138V28.7771H43.5091V25.7138C43.5091 23.1113 45.6266 20.989 48.2233 20.989H62.463V25.7527H69.3529V36.1044H56.1947V45.8784C43.6839 47.3452 33.9382 58.0343 33.9382 70.9625V147.013H117V70.9625C117 58.0343 107.254 47.3452 94.7435 45.8784V45.8719ZM66.6721 16.3551C66.6721 12.9478 69.4371 10.1766 72.8368 10.1766H78.1014C81.501 10.1766 84.2661 12.9478 84.2661 16.3551V21.5277H66.6721V16.3551ZM73.562 25.7462H77.3761V36.0979H73.562V25.7462ZM90.5344 40.3164V45.6967H60.4102V40.3164H90.5344ZM59.1475 49.9152H91.7971C103.375 49.9152 112.791 59.3518 112.791 70.956V129.211H38.1473V70.956C38.1473 59.3518 47.5628 49.9152 59.141 49.9152H59.1475ZM38.1538 142.788V133.436H112.797V142.788H38.1473H38.1538Z" fill="#EC829B"/>
<path d="M75.4724 113.076C86.6362 113.076 95.7149 103.977 95.7149 92.7884C95.7149 81.5996 86.6362 72.5005 75.4724 72.5005C64.3086 72.5005 55.2299 81.5996 55.2299 92.7884C55.2299 103.977 64.3086 113.076 75.4724 113.076ZM75.4724 76.7125C84.3115 76.7125 91.5058 83.923 91.5058 92.782C91.5058 101.641 84.3115 108.851 75.4724 108.851C66.6333 108.851 59.439 101.641 59.439 92.782C59.439 83.923 66.6333 76.7125 75.4724 76.7125Z" fill="#EC829B"/>
<path d="M25.0927 25.1489C29.2176 24.2662 32.3194 20.5863 32.3194 16.1991C32.3194 11.8118 29.2176 8.12542 25.0927 7.24926C24.212 3.11509 20.5404 0.00634766 16.1629 0.00634766C11.7855 0.00634766 8.10737 3.11509 7.23317 7.24926C3.10178 8.12542 0 11.8053 0 16.1926C0 20.5799 3.10178 24.2662 7.2267 25.1424C8.10737 29.2765 11.779 32.3853 16.1565 32.3853C20.5339 32.3853 24.212 29.2765 25.0862 25.1424L25.0927 25.1489ZM11.2351 23.2408V21.1315H9.13051C6.41726 21.1315 4.2091 18.9184 4.2091 16.1991C4.2091 13.4797 6.41726 11.2666 9.13051 11.2666H11.2351V9.15734C11.2351 6.438 13.4432 4.22489 16.1565 4.22489C18.8697 4.22489 21.0779 6.438 21.0779 9.15734V11.2666H23.1824C25.8957 11.2666 28.1038 13.4797 28.1038 16.1991C28.1038 18.9184 25.8957 21.1315 23.1824 21.1315H21.0779V23.2408C21.0779 25.9601 18.8697 28.1732 16.1565 28.1732C13.4432 28.1732 11.2351 25.9601 11.2351 23.2408Z" fill="#EC829B"/>
<path d="M38.1474 47.7994C38.1474 44.4181 35.8421 41.5689 32.7273 40.7447C31.9049 37.623 29.0557 35.3125 25.6884 35.3125C22.3211 35.3125 19.4719 37.623 18.6495 40.7447C15.5348 41.5689 13.2295 44.4246 13.2295 47.7994C13.2295 51.1742 15.5348 54.0298 18.6495 54.8541C19.4719 57.9758 22.3211 60.2863 25.6884 60.2863C29.0557 60.2863 31.9049 57.9758 32.7273 54.8541C35.8421 54.0298 38.1474 51.1742 38.1474 47.7994ZM30.8624 50.8822H28.7578V52.9914C28.7578 54.6918 27.3785 56.0742 25.6819 56.0742C23.9854 56.0742 22.6061 54.6918 22.6061 52.9914V50.8822H20.5015C18.8049 50.8822 17.4256 49.4998 17.4256 47.7994C17.4256 46.099 18.8049 44.7166 20.5015 44.7166H22.6061V42.6073C22.6061 40.9069 23.9854 39.5246 25.6819 39.5246C27.3785 39.5246 28.7578 40.9069 28.7578 42.6073V44.7166H30.8624C32.559 44.7166 33.9383 46.099 33.9383 47.7994C33.9383 49.4998 32.559 50.8822 30.8624 50.8822Z" fill="#EC829B"/>
</g>
<defs>
<clipPath id="clip0_239_13">
<rect width="117" height="147" fill="white"/>
</clipPath>
</defs>
</svg>
