<svg width="49" height="48" viewBox="0 0 49 48" fill="none" xmlns="http://www.w3.org/2000/svg">
<path d="M28.7055 33.668C28.7055 43.106 21.9735 47.594 14.3835 47.594C6.79352 47.594 0.0615234 43.106 0.0615234 33.668V14.858C0.0615234 5.15597 6.79352 0.865967 14.3835 0.865967C21.9735 0.865967 28.7055 5.15597 28.7055 14.792V33.668ZM21.0495 15.254C21.0495 10.37 18.4755 7.53197 14.3835 7.53197C10.2255 7.53197 7.65152 10.37 7.65152 15.254V33.206C7.65152 38.09 10.2255 40.928 14.3835 40.928C18.4755 40.928 21.0495 38.09 21.0495 33.206V15.254Z" fill="#222222"/>
<path d="M48.7999 1.45997V47H41.1439V9.70997L34.6099 14.198V6.47597L41.6059 1.45997H48.7999Z" fill="#222222"/>
</svg>
