<svg width="64" height="48" viewBox="0 0 64 48" fill="none" xmlns="http://www.w3.org/2000/svg">
<path d="M29.5654 33.668C29.5654 43.106 22.8334 47.594 15.2434 47.594C7.65339 47.594 0.921387 43.106 0.921387 33.668V14.858C0.921387 5.15597 7.65339 0.865967 15.2434 0.865967C22.8334 0.865967 29.5654 5.15597 29.5654 14.792V33.668ZM21.9094 15.254C21.9094 10.37 19.3354 7.53197 15.2434 7.53197C11.0854 7.53197 8.51139 10.37 8.51139 15.254V33.206C8.51139 38.09 11.0854 40.928 15.2434 40.928C19.3354 40.928 21.9094 38.09 21.9094 33.206V15.254Z" fill="#222222"/>
<path d="M62.9918 40.4V47H35.4698V41.588L51.1118 23.24C54.0818 19.808 55.7318 16.838 55.7318 13.67C55.7318 9.51197 52.6298 7.39997 49.2638 7.39997C45.6998 7.39997 42.9938 9.57797 42.7958 13.67H35.7998C35.7998 5.94797 42.0038 0.865967 49.5278 0.865967C57.3158 0.865967 63.3218 6.14597 63.3218 13.802C63.3218 19.544 59.3618 24.032 56.4578 27.53L45.6998 40.4H62.9918Z" fill="#222222"/>
</svg>
