<svg width="64" height="48" viewBox="0 0 64 48" fill="none" xmlns="http://www.w3.org/2000/svg">
<path d="M29.5654 33.668C29.5654 43.106 22.8334 47.594 15.2434 47.594C7.65339 47.594 0.921387 43.106 0.921387 33.668V14.858C0.921387 5.15597 7.65339 0.865967 15.2434 0.865967C22.8334 0.865967 29.5654 5.15597 29.5654 14.792V33.668ZM21.9094 15.254C21.9094 10.37 19.3354 7.53197 15.2434 7.53197C11.0854 7.53197 8.51139 10.37 8.51139 15.254V33.206C8.51139 38.09 11.0854 40.928 15.2434 40.928C19.3354 40.928 21.9094 38.09 21.9094 33.206V15.254Z" fill="#222222"/>
<path d="M45.0398 26.804V20.204H48.2078C52.9598 20.204 55.5338 17.696 55.5338 13.406C55.5338 10.106 52.9598 7.39997 49.0658 7.39997C45.3698 7.39997 42.9278 9.84197 42.5978 13.01H35.6018C35.7998 5.68397 42.0038 0.865967 49.3298 0.865967C57.3158 0.865967 63.1238 6.34397 63.1238 13.208C63.1238 18.158 60.2198 21.59 56.6558 23.372C60.8138 25.22 63.7838 28.784 63.7838 34.394C63.7838 41.588 58.6358 47.594 49.8578 47.594C40.6178 47.594 35.4038 42.314 35.0078 35.12H42.0038C42.5318 38.42 44.8418 40.928 49.5278 40.928C53.4878 40.928 56.1938 38.024 56.1938 34.196C56.1938 29.576 53.4878 26.804 48.2078 26.804H45.0398Z" fill="#222222"/>
</svg>
