<?xml version="1.0" encoding="utf-8"?>
<!-- Generator: Adobe Illustrator 27.7.0, SVG Export Plug-In . SVG Version: 6.00 Build 0)  -->
<svg version="1.1" id="_レイヤー_2" xmlns="http://www.w3.org/2000/svg" xmlns:xlink="http://www.w3.org/1999/xlink" x="0px"
	 y="0px" viewBox="0 0 304.6 305.4" style="enable-background:new 0 0 304.6 305.4;" xml:space="preserve">
<style type="text/css">
	.st0{opacity:0.1;}
	.st1{fill:#E40579;}
	.st2{fill:#E5057A;}
	.st3{fill:#E40479;}
</style>
<g id="_レイヤー_1-2" class="st0">
	<path class="st1" d="M303.8,164.3c-2.9,28.7-12.1,55-29.1,78.6c-15.6,21.8-35.9,37.6-60,48.8c-14.5,6.7-29.6,10.8-45.5,12.7
		c-31.5,3.7-61-2.8-88.8-17c-25-12.8-45-31.3-58.7-56.1c-1.1-2.1-0.5-5.1-0.7-7.7c2.7,0.1,5.9-0.7,8.1,0.5
		c17.3,9.1,34.1,5.5,50.5-2.2c18.5-8.7,32.7-22.6,44-39.3c10.1-14.8,19.2-30.3,29.2-45.1c7-10.4,15.1-20.2,26.1-26.6
		c5.6-3.3,12.2-5,18.3-7.4c1.1-0.4,2.4-0.8,4.4-1.4c-1.6-1.2-2.3-2.1-3.3-2.4c-14.3-5.1-26.9-13.4-37.9-23.4
		c-12-10.9-22.8-23.1-33.9-34.8c-2.1-2.2-4.5-5-1.8-8.2c2.6-3.2,5.6-1.7,8.9-0.6c7.6,2.6,15.5,6.3,23.2,6.3
		c14.9,0.1,28.9-4.6,40.5-14.7c1.6-1.4,3.2-2.8,5.6-4.8c-15.8-5.2-30.5-8.8-46-9.2c-21.7-0.5-42.6,2.6-62.4,11.4
		C78,28.9,63.3,39.2,50.5,52c-17.3,17.3-29.6,37.6-36.8,61c-5,16.4-6.8,33.3-5.5,50.2c0.8,9.9,3.7,19.5,5.3,29.3
		c0.2,1.4-1.1,3.2-1.6,4.8c-1.6-0.9-4.4-1.6-4.7-2.8c-2.3-9.9-4.4-19.8-6.1-29.8c-0.9-5.7-1.2-11.5-1-17.3c1.3-31.8,11-60.8,30-86.5
		c15.5-21,35-37,58.9-47.7C103,7.1,117.4,3,132.7,1.1c29.2-3.5,57,1.1,83.7,13.3c14.1,6.4,26.7,14.9,38.4,25.2
		c17.6,15.5,30.4,34.3,38.9,56c5.4,13.7,9.1,27.9,10.1,42.7c0.2,3,0.5,6,0.8,9c0,2.7,0,5.3,0,8C304.3,158.3,304.1,161.3,303.8,164.3
		L303.8,164.3z M160.8,293.3c8.2-1.4,16.5-2.4,24.6-4.1c22.5-4.9,42.2-15.7,59.4-30.6c11.7-10.2,21.7-22.1,29.4-35.9
		c10.1-18.2,16.7-37.5,18.2-58.1c1.3-16.9,0.3-33.8-4.5-50.4c-6.6-22.9-18-42.8-34.1-60.1c-10.7-11.5-23-21.2-37.1-28.4
		c-3-1.5-4.3-1.3-6.7,0.9c-14.3,13.2-30.8,21.7-50.7,21.8c-4.6,0-9.3,0-14.4,0c7.1,6.9,14.2,14.1,21.6,20.9
		c10.7,9.9,22.4,18.3,36.2,23.3c13.5,4.9,27.1,5.8,40.7-0.1c5.1-2.2,10.9-0.8,12.2,2.8c1.4,3.8-1.3,7.6-7,9.8
		c-0.8,0.3-1.6,0.4-2.4,0.5c-3.9,0.7-7.7,1.2-11.6,2c-7.1,1.5-14.2,3.4-21.4,4.8c-12,2.3-23.9,5.4-32,15.3
		c-11,13.5-21.7,27.3-31.8,41.6c-15.4,21.9-31.4,42.9-55.3,56.3c-15.2,8.5-31.3,13-48.8,11.8c-2.4-0.2-4.8-0.7-7.2-1
		c25.8,34.2,59.1,53.9,101.6,57.2C146.8,293.3,153.8,293.3,160.8,293.3L160.8,293.3z"/>
	<path class="st2" d="M49.9,186.1c-4.6-1.3-9.4-2.2-13.8-4.1c-1.5-0.6-2-3.5-2.9-5.3c2-0.8,4.4-2.7,6-2.2
		c17.5,5.6,31.4-2.4,43.7-12.9c16.1-13.8,28.8-30.6,39.5-49c2.2-3.7,1.2-4.7-1.8-6.2c-13.9-7-25.8-16.2-32.5-30.6
		c-4.9-10.6-5.5-21.2,2.7-30.9c1.7-2,4-4,6.2-1.8c1,1,0.6,4.8-0.5,6.3c-4.2,5.9-3.2,18,2.5,24.9c9.8,12,22.6,18.7,37.1,22.8
		c8.6,2.5,9.8,5.9,5.1,13.5c-10.4,16.8-21.8,32.9-36.1,46.7c-10.8,10.4-22.6,19.8-37,24.8C62.3,184.1,56.2,184.8,49.9,186.1
		L49.9,186.1z"/>
	<path class="st3" d="M146.9,264.1c-14.7-1.9-29.5-3.8-44.2-5.9c-4.6-0.7-7.2-4.6-6.8-8.9c0.4-4,3.6-6.2,8.6-6.1
		c6.1,0.2,12.3,1.3,18.2,0.4c10.1-1.5,17.5-7.9,23-16.2c11.8-17.9,23.3-36,35.1-53.9c5.8-8.7,12.6-16.6,21.6-22.2
		c11.7-7.2,23.9-8.2,36.6-3.2c3.5,1.4,6.8,3.4,9.8,5.6c1.6,1.2,2.4,3.4,3.6,5.2c-0.4,0.6-0.8,1.1-1.1,1.7c-2.3-0.7-4.7-1.2-6.8-2.2
		c-17.3-8.6-34.3-5.6-46.3,11.8c-10.4,15-19.1,31.1-28.4,46.7c-7.1,12-16.5,21.8-28.1,29.5c-0.7,0.4-1.1,1.1-1.7,1.7
		c-0.6,0.4-1.1,0.7-1.7,1.1c0.6,0.2,1.3,0.3,1.9,0.5c0.6,0.1,1.3,0.2,1.9,0.3c7.3,0,14.6,0.1,21.9,0.1c20.4-0.7,38.9-6.7,55.2-19.4
		c7.9-6.2,13.3-14,17.7-22.8c1.4-2.8,3.3-4.8,6-3.3c1.2,0.6,1.7,4.3,1.1,6.1c-8.1,25.3-25.6,41.3-50.5,49.1
		c-7.8,2.5-16.3,3-24.5,4.3C161.5,264.2,154.2,264.1,146.9,264.1L146.9,264.1z"/>
</g>
</svg>
